  0
SECTION
  2
HEADER
  9
$ACADVER
  1
AC1027
  9
$ACADMAINTVER
 70
     8
  9
$DWGCODEPAGE
  3
ANSI_1252
  9
$REQUIREDVERSIONS
160
                 0
  9
$INSBASE
 10
0.0
 20
0.0
 30
0.0
  9
$EXTMIN
 10
1.000000000000000E+20
 20
1.000000000000000E+20
 30
1.000000000000000E+20
  9
$EXTMAX
 10
-1.000000000000000E+20
 20
-1.000000000000000E+20
 30
-1.000000000000000E+20
  9
$LIMMIN
 10
0.0
 20
0.0
  9
$LIMMAX
 10
12.0
 20
9.0
  9
$ORTHOMODE
 70
     0
  9
$REGENMODE
 70
     1
  9
$FILLMODE
 70
     1
  9
$QTEXTMODE
 70
     0
  9
$MIRRTEXT
 70
     1
  9
$LTSCALE
 40
10.0
  9
$ATTMODE
 70
     1
  9
$TEXTSIZE
 40
4.0
  9
$TRACEWID
 40
0.05
  9
$TEXTSTYLE
  7
ROMANS
  9
$CLAYER
  8
S-FENCE-FENCELINE
  9
$CELTYPE
  6
ByLayer
  9
$CECOLOR
 62
   256
  9
$CELTSCALE
 40
1.0
  9
$DISPSILH
 70
     0
  9
$DIMSCALE
 40
50.0
  9
$DIMASZ
 40
0.08
  9
$DIMEXO
 40
0.0625
  9
$DIMDLI
 40
0.38
  9
$DIMRND
 40
0.0
  9
$DIMDLE
 40
0.0
  9
$DIMEXE
 40
0.18
  9
$DIMTP
 40
0.0
  9
$DIMTM
 40
0.0
  9
$DIMTXT
 40
0.08
  9
$DIMCEN
 40
0.09
  9
$DIMTSZ
 40
0.0
  9
$DIMTOL
 70
     0
  9
$DIMLIM
 70
     0
  9
$DIMTIH
 70
     1
  9
$DIMTOH
 70
     1
  9
$DIMSE1
 70
     0
  9
$DIMSE2
 70
     0
  9
$DIMTAD
 70
     0
  9
$DIMZIN
 70
     0
  9
$DIMBLK
  1

  9
$DIMASO
 70
     1
  9
$DIMSHO
 70
     1
  9
$DIMPOST
  1

  9
$DIMAPOST
  1

  9
$DIMALT
 70
     0
  9
$DIMALTD
 70
     2
  9
$DIMALTF
 40
25.4
  9
$DIMLFAC
 40
1.0
  9
$DIMTOFL
 70
     0
  9
$DIMTVP
 40
0.0
  9
$DIMTIX
 70
     0
  9
$DIMSOXD
 70
     0
  9
$DIMSAH
 70
     0
  9
$DIMBLK1
  1

  9
$DIMBLK2
  1

  9
$DIMSTYLE
  2
Standard
  9
$DIMCLRD
 70
     0
  9
$DIMCLRE
 70
     0
  9
$DIMCLRT
 70
     0
  9
$DIMTFAC
 40
1.0
  9
$DIMGAP
 40
0.09
  9
$DIMJUST
 70
     0
  9
$DIMSD1
 70
     0
  9
$DIMSD2
 70
     0
  9
$DIMTOLJ
 70
     1
  9
$DIMTZIN
 70
     0
  9
$DIMALTZ
 70
     0
  9
$DIMALTTZ
 70
     0
  9
$DIMUPT
 70
     0
  9
$DIMDEC
 70
     4
  9
$DIMTDEC
 70
     4
  9
$DIMALTU
 70
     2
  9
$DIMALTTD
 70
     2
  9
$DIMTXSTY
  7
Standard
  9
$DIMAUNIT
 70
     0
  9
$DIMADEC
 70
     0
  9
$DIMALTRND
 40
0.0
  9
$DIMAZIN
 70
     0
  9
$DIMDSEP
 70
    46
  9
$DIMATFIT
 70
     3
  9
$DIMFRAC
 70
     0
  9
$DIMLDRBLK
  1

  9
$DIMLUNIT
 70
     2
  9
$DIMLWD
 70
    -2
  9
$DIMLWE
 70
    -2
  9
$DIMTMOVE
 70
     0
  9
$DIMFXL
 40
1.0
  9
$DIMFXLON
 70
     0
  9
$DIMJOGANG
 40
0.7853981633974483
  9
$DIMTFILL
 70
     0
  9
$DIMTFILLCLR
 70
     0
  9
$DIMARCSYM
 70
     0
  9
$DIMLTYPE
  6

  9
$DIMLTEX1
  6

  9
$DIMLTEX2
  6

  9
$DIMTXTDIRECTION
 70
     0
  9
$LUNITS
 70
     2
  9
$LUPREC
 70
     4
  9
$SKETCHINC
 40
0.1
  9
$FILLETRAD
 40
0.0
  9
$AUNITS
 70
     4
  9
$AUPREC
 70
     4
  9
$MENU
  1
.
  9
$ELEVATION
 40
0.0
  9
$PELEVATION
 40
0.0
  9
$THICKNESS
 40
0.0
  9
$LIMCHECK
 70
     0
  9
$CHAMFERA
 40
0.0
  9
$CHAMFERB
 40
0.0
  9
$CHAMFERC
 40
0.0
  9
$CHAMFERD
 40
0.0
  9
$SKPOLY
 70
     0
  9
$TDCREATE
 40
2457766.369380463
  9
$TDUCREATE
 40
2457766.577713796
  9
$TDUPDATE
 40
2461105.607929375
  9
$TDUUPDATE
 40
2461105.816262709
  9
$TDINDWG
 40
2460483.107732037
  9
$TDUSRTIMER
 40
0.0000000116
  9
$USRTIMER
 70
     1
  9
$ANGBASE
 50
0.0
  9
$ANGDIR
 70
     0
  9
$PDMODE
 70
     0
  9
$PDSIZE
 40
8.0
  9
$PLINEWID
 40
0.0
  9
$SPLFRAME
 70
     0
  9
$SPLINETYPE
 70
     6
  9
$SPLINESEGS
 70
     8
  9
$HANDSEED
  5
1A7
  9
$SURFTAB1
 70
     6
  9
$SURFTAB2
 70
     6
  9
$SURFTYPE
 70
     6
  9
$SURFU
 70
     6
  9
$SURFV
 70
     6
  9
$UCSBASE
  2

  9
$UCSNAME
  2

  9
$UCSORG
 10
0.0
 20
0.0
 30
0.0
  9
$UCSXDIR
 10
1.0
 20
0.0
 30
0.0
  9
$UCSYDIR
 10
0.0
 20
1.0
 30
0.0
  9
$UCSORTHOREF
  2

  9
$UCSORTHOVIEW
 70
     0
  9
$UCSORGTOP
 10
0.0
 20
0.0
 30
0.0
  9
$UCSORGBOTTOM
 10
0.0
 20
0.0
 30
0.0
  9
$UCSORGLEFT
 10
0.0
 20
0.0
 30
0.0
  9
$UCSORGRIGHT
 10
0.0
 20
0.0
 30
0.0
  9
$UCSORGFRONT
 10
0.0
 20
0.0
 30
0.0
  9
$UCSORGBACK
 10
0.0
 20
0.0
 30
0.0
  9
$PUCSBASE
  2

  9
$PUCSNAME
  2

  9
$PUCSORG
 10
0.0
 20
0.0
 30
0.0
  9
$PUCSXDIR
 10
1.0
 20
0.0
 30
0.0
  9
$PUCSYDIR
 10
0.0
 20
1.0
 30
0.0
  9
$PUCSORTHOREF
  2

  9
$PUCSORTHOVIEW
 70
     0
  9
$PUCSORGTOP
 10
0.0
 20
0.0
 30
0.0
  9
$PUCSORGBOTTOM
 10
0.0
 20
0.0
 30
0.0
  9
$PUCSORGLEFT
 10
0.0
 20
0.0
 30
0.0
  9
$PUCSORGRIGHT
 10
0.0
 20
0.0
 30
0.0
  9
$PUCSORGFRONT
 10
0.0
 20
0.0
 30
0.0
  9
$PUCSORGBACK
 10
0.0
 20
0.0
 30
0.0
  9
$USERI1
 70
     0
  9
$USERI2
 70
     0
  9
$USERI3
 70
     0
  9
$USERI4
 70
     0
  9
$USERI5
 70
     0
  9
$USERR1
 40
0.0
  9
$USERR2
 40
0.0
  9
$USERR3
 40
0.0
  9
$USERR4
 40
0.0
  9
$USERR5
 40
0.0
  9
$WORLDVIEW
 70
     1
  9
$SHADEDGE
 70
     3
  9
$SHADEDIF
 70
    70
  9
$TILEMODE
 70
     1
  9
$MAXACTVP
 70
    64
  9
$PINSBASE
 10
0.0
 20
0.0
 30
0.0
  9
$PLIMCHECK
 70
     0
  9
$PEXTMIN
 10
1.000000000000000E+20
 20
1.000000000000000E+20
 30
1.000000000000000E+20
  9
$PEXTMAX
 10
-1.000000000000000E+20
 20
-1.000000000000000E+20
 30
-1.000000000000000E+20
  9
$PLIMMIN
 10
0.0
 20
0.0
  9
$PLIMMAX
 10
12.0
 20
9.0
  9
$UNITMODE
 70
     0
  9
$VISRETAIN
 70
     1
  9
$PLINEGEN
 70
     0
  9
$PSLTSCALE
 70
     1
  9
$TREEDEPTH
 70
  3020
  9
$CMLSTYLE
  2
Standard
  9
$CMLJUST
 70
     0
  9
$CMLSCALE
 40
1.0
  9
$PROXYGRAPHICS
 70
     1
  9
$MEASUREMENT
 70
     0
  9
$CELWEIGHT
370
    -1
  9
$ENDCAPS
280
     0
  9
$JOINSTYLE
280
     0
  9
$LWDISPLAY
290
     0
  9
$INSUNITS
 70
     0
  9
$HYPERLINKBASE
  1

  9
$STYLESHEET
  1

  9
$XEDIT
290
     1
  9
$CEPSNTYPE
380
     0
  9
$PSTYLEMODE
290
     1
  9
$FINGERPRINTGUID
  2
{79225D5A-7855-4722-9FCD-BCDC41295E09}
  9
$VERSIONGUID
  2
{FAEB1C32-E019-11D5-929B-00C0DF256EC4}
  9
$EXTNAMES
290
     1
  9
$PSVPSCALE
 40
0.0
  9
$OLESTARTUP
290
     0
  9
$SORTENTS
280
   127
  9
$INDEXCTL
280
     0
  9
$HIDETEXT
280
     1
  9
$XCLIPFRAME
280
     2
  9
$HALOGAP
280
     0
  9
$OBSCOLOR
 70
   257
  9
$OBSLTYPE
280
     0
  9
$INTERSECTIONDISPLAY
280
     0
  9
$INTERSECTIONCOLOR
 70
   257
  9
$DIMASSOC
280
     2
  9
$PROJECTNAME
  1

  9
$CAMERADISPLAY
290
     0
  9
$LENSLENGTH
 40
50.0
  9
$CAMERAHEIGHT
 40
0.0
  9
$STEPSPERSEC
 40
2.0
  9
$STEPSIZE
 40
6.0
  9
$3DDWFPREC
 40
2.0
  9
$PSOLWIDTH
 40
0.25
  9
$PSOLHEIGHT
 40
4.0
  9
$LOFTANG1
 40
1.570796326794897
  9
$LOFTANG2
 40
1.570796326794897
  9
$LOFTMAG1
 40
0.0
  9
$LOFTMAG2
 40
0.0
  9
$LOFTPARAM
 70
     7
  9
$LOFTNORMALS
280
     1
  9
$LATITUDE
 40
37.795
  9
$LONGITUDE
 40
-122.394
  9
$NORTHDIRECTION
 40
0.0
  9
$TIMEZONE
 70
 -8000
  9
$LIGHTGLYPHDISPLAY
280
     1
  9
$TILEMODELIGHTSYNCH
280
     1
  9
$CMATERIAL
347
11
  9
$SOLIDHIST
280
     0
  9
$SHOWHIST
280
     1
  9
$DWFFRAME
280
     2
  9
$DGNFRAME
280
     2
  9
$REALWORLDSCALE
290
     1
  9
$INTERFERECOLOR
 62
   256
  9
$CSHADOW
280
     0
  9
$SHADOWPLANELOCATION
 40
0.0
  0
ENDSEC
  0
SECTION
  2
CLASSES
  0
CLASS
  1
ACDBDICTIONARYWDFLT
  2
AcDbDictionaryWithDefault
  3
ObjectDBX Classes
 90
        0
 91
        8
280
     0
281
     0
  0
CLASS
  1
MATERIAL
  2
AcDbMaterial
  3
ObjectDBX Classes
 90
     1153
 91
        8
280
     0
281
     0
  0
CLASS
  1
SORTENTSTABLE
  2
AcDbSortentsTable
  3
ObjectDBX Classes
 90
        0
 91
        6
280
     0
281
     0
  0
CLASS
  1
SUN
  2
AcDbSun
  3
SCENEOE
 90
     1153
 91
        8
280
     0
281
     0
  0
CLASS
  1
SCALE
  2
AcDbScale
  3
ObjectDBX Classes
 90
     1153
 91
        8
280
     0
281
     0
  0
CLASS
  1
DICTIONARYVAR
  2
AcDbDictionaryVar
  3
ObjectDBX Classes
 90
        0
 91
        6
280
     0
281
     0
  0
ENDSEC
  0
SECTION
  2
TABLES
  0
TABLE
  2
VPORT
  5
28
330
0
100
AcDbSymbolTable
 70
     1
  0
VPORT
  5
2D
330
28
100
AcDbSymbolTableRecord
100
AcDbViewportTableRecord
  2
*Active
 70
     0
 10
0.0
 20
0.0
 11
1.0
 21
1.0
 12
1203575.912389309
 22
612280.6872046004
 13
0.0
 23
0.0
 14
0.5
 24
0.5
 15
0.5
 25
0.5
 16
0.0
 26
0.0
 36
1559279.232561814
 17
0.0
 27
0.0
 37
0.0
 40
2632.881654602494
 41
1.958128078817734
 42
50.0
 43
0.0
 44
0.0
 50
0.0
 51
0.0
 71
    16
 72
   100
 73
     1
 74
     1
 75
     0
 76
     0
 77
     0
 78
     0
281
     0
 65
     1
110
0.0
120
0.0
130
0.0
111
1.0
121
0.0
131
0.0
112
0.0
122
1.0
132
0.0
 79
     0
146
0.0
 60
     3
 61
     5
292
     1
282
     1
141
0.0
142
0.0
 63
   250
361
2E
  0
ENDTAB
  0
TABLE
  2
LTYPE
  5
9
330
0
100
AcDbSymbolTable
 70
    71
  0
LTYPE
  5
A
330
9
100
AcDbSymbolTableRecord
100
AcDbLinetypeTableRecord
  2
ByBlock
 70
     0
  3

 72
    65
 73
     0
 40
0.0
  0
LTYPE
  5
B
330
9
100
AcDbSymbolTableRecord
100
AcDbLinetypeTableRecord
  2
ByLayer
 70
     0
  3

 72
    65
 73
     0
 40
0.0
  0
LTYPE
  5
1E
330
9
100
AcDbSymbolTableRecord
100
AcDbLinetypeTableRecord
  2
Continuous
 70
     0
  3
Solid line
 72
    65
 73
     0
 40
0.0
  0
LTYPE
  5
61
330
9
100
AcDbSymbolTableRecord
100
AcDbLinetypeTableRecord
  2
BLDG_C_0-0.1_0-0.0
 70
     0
  3

 72
    65
 73
     2
 40
0.1
 49
0.05
 74
     4
 75
     5
340
C
 46
0.04
 50
0.0
 44
0.0
 45
-0.02
 49
0.05
 74
     0
  0
LTYPE
  5
64
330
9
100
AcDbSymbolTableRecord
100
AcDbLinetypeTableRecord
  2
RW_1-00_0-10_1-00
 70
     0
  3
RW
 72
    65
 73
     3
 40
1.0
 49
0.7
 74
     0
 49
-0.15
 74
     4
 75
    25
340
C
 46
0.1
 50
0.0
 44
0.0
 45
0.0
 49
-0.15
 74
     0
  0
LTYPE
  5
68
330
9
100
AcDbSymbolTableRecord
100
AcDbLinetypeTableRecord
  2
special_EG_2-00_0-06_0-10
 70
     0
  3
special_EG
 72
    65
 73
     3
 40
2.0
 49
1.8508
 74
     0
 49
-0.0746
 74
     2
 75
     0
340
10
 46
0.06
 50
0.0
 44
-0.0546
 45
-0.03
  9
EG
 49
-0.0746
 74
     0
  0
LTYPE
  5
194
330
9
100
AcDbSymbolTableRecord
100
AcDbLinetypeTableRecord
  2
special_EA_2-00_0-06_0-10
 70
     0
  3
special_EA
 72
    65
 73
     3
 40
2.0
 49
1.8548
 74
     0
 49
-0.0726
 74
     2
 75
     0
340
10
 46
0.06
 50
0.0
 44
-0.0526
 45
-0.03
  9
EA
 49
-0.0726
 74
     0
  0
LTYPE
  5
75
330
9
100
AcDbSymbolTableRecord
100
AcDbLinetypeTableRecord
  2
special_LS_2-00_0-06_0-10
 70
     0
  3
special_LS
 72
    65
 73
     3
 40
2.0
 49
1.868
 74
     0
 49
-0.066
 74
     2
 75
     0
340
10
 46
0.06
 50
0.0
 44
-0.046
 45
-0.03
  9
LS
 49
-0.066
 74
     0
  0
LTYPE
  5
8
330
9
100
AcDbSymbolTableRecord
100
AcDbLinetypeTableRecord
  2
FENCES_0-50_0-10_1-00
 70
     0
  3
FENCES
 72
    65
 73
     2
 40
1.0
 49
0.5
 74
     4
 75
    10
340
C
 46
0.1
 50
0.0
 44
0.0
 45
0.0
 49
0.5
 74
     0
  0
ENDTAB
  0
TABLE
  2
LAYER
  5
2
330
0
100
AcDbSymbolTable
 70
   127
  0
LAYER
  5
1D
330
2
100
AcDbSymbolTableRecord
100
AcDbLayerTableRecord
  2
0
 70
     0
 62
     7
  6
Continuous
370
    -3
390
3
347
6
348
0
  0
LAYER
  5
6D
330
2
100
AcDbSymbolTableRecord
100
AcDbLayerTableRecord
  2
S-BLDG-LINE
 70
     0
 62
    24
  6
Continuous
370
    -3
390
3
347
6
348
0
1001
AcAecLayerStandard
1000

1000

  0
LAYER
  5
6B
330
2
100
AcDbSymbolTableRecord
100
AcDbLayerTableRecord
  2
S-BNDRY-BOUNDARY LINE
 70
     0
 62
    30
  6
Continuous
370
    -3
390
3
347
6
348
0
1001
AcAecLayerStandard
1000

1000

  0
LAYER
  5
60
330
2
100
AcDbSymbolTableRecord
100
AcDbLayerTableRecord
  2
S-BLDG-SHED
 70
     0
 62
    22
  6
BLDG_C_0-0.1_0-0.0
370
    -3
390
3
347
6
348
0
1001
AcAecLayerStandard
1000

1000

  0
LAYER
  5
63
330
2
100
AcDbSymbolTableRecord
100
AcDbLayerTableRecord
  2
S-ROADS-RW
 70
     0
 62
     7
  6
RW_1-00_0-10_1-00
370
    -3
390
3
347
6
348
0
1001
AcAecLayerStandard
1000

1000

  0
LAYER
  5
67
330
2
100
AcDbSymbolTableRecord
100
AcDbLayerTableRecord
  2
S-ROADS-GRAVEL
 70
     0
 62
   252
  6
special_EG_2-00_0-06_0-10
370
    -3
390
3
347
6
348
0
1001
AcAecLayerStandard
1000

1000

  0
LAYER
  5
193
330
2
100
AcDbSymbolTableRecord
100
AcDbLayerTableRecord
  2
S-ROADS-ASPHALT
 70
     0
 62
   250
  6
special_EA_2-00_0-06_0-10
370
    -3
390
3
347
6
348
0
1001
AcAecLayerStandard
1000

1000

  0
LAYER
  5
1
330
2
100
AcDbSymbolTableRecord
100
AcDbLayerTableRecord
  2
S-FENCE-FENCELINE
 70
     0
 62
     7
  6
FENCES_0-50_0-10_1-00
370
    -3
390
3
347
6
348
0
1001
AcAecLayerStandard
1000

1000

  0
LAYER
  5
91
102
{ACAD_XDICTIONARY
360
92
102
}
330
2
100
AcDbSymbolTableRecord
100
AcDbLayerTableRecord
  2
PNTNO
 70
     0
 62
     7
  6
Continuous
370
    -3
390
3
347
6
348
0
  0
LAYER
  5
96
102
{ACAD_XDICTIONARY
360
97
102
}
330
2
100
AcDbSymbolTableRecord
100
AcDbLayerTableRecord
  2
PNTELEV
 70
     1
 62
     5
  6
Continuous
370
    -3
390
3
347
6
348
0
  0
LAYER
  5
9A
102
{ACAD_XDICTIONARY
360
9B
102
}
330
2
100
AcDbSymbolTableRecord
100
AcDbLayerTableRecord
  2
PNTDESC
 70
     1
 62
     7
  6
Continuous
370
    -3
390
3
347
6
348
0
  0
LAYER
  5
74
330
2
100
AcDbSymbolTableRecord
100
AcDbLayerTableRecord
  2
S-SITE-LANDSCAPING
 70
     0
 62
    94
  6
special_LS_2-00_0-06_0-10
370
    -3
390
3
347
6
348
0
1001
AcAecLayerStandard
1000

1000

  0
LAYER
  5
55
330
2
100
AcDbSymbolTableRecord
100
AcDbLayerTableRecord
  2
S-BNDRY-MONUMENTS
 70
     0
 62
    30
  6
Continuous
370
    -3
390
3
347
6
348
0
  0
LAYER
  5
CE
330
2
100
AcDbSymbolTableRecord
100
AcDbLayerTableRecord
  2
S-FENCE-POST
 70
     0
 62
   252
  6
Continuous
370
    -3
390
3
347
6
348
0
1001
AcAecLayerStandard
1000

1000

  0
ENDTAB
  0
TABLE
  2
STYLE
  5
D
330
0
100
AcDbSymbolTable
 70
    11
  0
STYLE
  5
14
330
D
100
AcDbSymbolTableRecord
100
AcDbTextStyleTableRecord
  2
Standard
 70
     0
 40
0.0
 41
1.0
 50
0.0
 71
     0
 42
4.0
  3

  4

1001
ACAD
1000
Arial
1071
       34
  0
STYLE
  5
C
330
D
100
AcDbSymbolTableRecord
100
AcDbTextStyleTableRecord
  2

 70
     1
 40
0.0
 41
1.0
 50
0.0
 71
     0
 42
4.0
  3
scadline.shx
  4

  0
STYLE
  5
10
330
D
100
AcDbSymbolTableRecord
100
AcDbTextStyleTableRecord
  2
ROMANS
 70
     0
 40
0.0
 41
1.0
 50
0.0
 71
     0
 42
4.0
  3
romans
  4

  0
STYLE
  5
94
330
D
100
AcDbSymbolTableRecord
100
AcDbTextStyleTableRecord
  2
PTXT
 70
     0
 40
0.0
 41
1.0
 50
0.0
 71
     0
 42
4.0
  3
TXT
  4

  0
ENDTAB
  0
TABLE
  2
VIEW
  5
26
330
0
100
AcDbSymbolTable
 70
     0
  0
ENDTAB
  0
TABLE
  2
UCS
  5
27
330
0
100
AcDbSymbolTable
 70
     0
  0
ENDTAB
  0
TABLE
  2
APPID
  5
F
330
0
100
AcDbSymbolTable
 70
    54
  0
APPID
  5
15
330
F
100
AcDbSymbolTableRecord
100
AcDbRegAppTableRecord
  2
ACAD
 70
     0
  0
APPID
  5
56
330
F
100
AcDbSymbolTableRecord
100
AcDbRegAppTableRecord
  2
PNTNO
 70
     0
  0
APPID
  5
5E
330
F
100
AcDbSymbolTableRecord
100
AcDbRegAppTableRecord
  2
SPT
 70
     0
  0
APPID
  5
58
330
F
100
AcDbSymbolTableRecord
100
AcDbRegAppTableRecord
  2
PT_HANDLE
 70
     0
  0
APPID
  5
E
330
F
100
AcDbSymbolTableRecord
100
AcDbRegAppTableRecord
  2
AcAecLayerStandard
 70
     0
  0
APPID
  5
57
330
F
100
AcDbSymbolTableRecord
100
AcDbRegAppTableRecord
  2
FINISH
 70
     0
  0
ENDTAB
  0
TABLE
  2
DIMSTYLE
  5
13
330
0
100
AcDbSymbolTable
 70
     1
100
AcDbDimStyleTable
  0
DIMSTYLE
105
12
330
13
100
AcDbSymbolTableRecord
100
AcDbDimStyleTableRecord
  2
Standard
 70
     0
178
     0
340
14
  0
ENDTAB
  0
TABLE
  2
BLOCK_RECORD
  5
18
330
0
100
AcDbSymbolTable
 70
    88
  0
BLOCK_RECORD
  5
19
102
{ACAD_XDICTIONARY
360
1A
102
}
330
18
100
AcDbSymbolTableRecord
100
AcDbBlockTableRecord
  2
*Model_Space
340
20
 70
     0
280
     1
281
     0
  0
BLOCK_RECORD
  5
22
330
18
100
AcDbSymbolTableRecord
100
AcDbBlockTableRecord
  2
*Paper_Space
340
25
 70
     0
280
     1
281
     0
  0
BLOCK_RECORD
  5
BC
330
18
100
AcDbSymbolTableRecord
100
AcDbBlockTableRecord
  2
SPT204
340
0
102
{BLKREFS
331
BB
102
}
 70
     0
280
     1
281
     0
  0
BLOCK_RECORD
  5
86
330
18
100
AcDbSymbolTableRecord
100
AcDbBlockTableRecord
  2
SPT4
340
0
102
{BLKREFS
331
85
102
}
 70
     0
280
     1
281
     0
  0
BLOCK_RECORD
  5
5A
330
18
100
AcDbSymbolTableRecord
100
AcDbBlockTableRecord
  2
SPT5
340
0
102
{BLKREFS
331
D2
331
8B
331
84
331
83
331
59
102
}
 70
     0
280
     1
281
     0
  0
BLOCK_RECORD
  5
7E
330
18
100
AcDbSymbolTableRecord
100
AcDbBlockTableRecord
  2
SPT240
340
0
102
{BLKREFS
331
D0
331
BA
331
A5
331
A4
331
7D
102
}
 70
     0
280
     1
281
     0
  0
BLOCK_RECORD
  5
FA
330
18
100
AcDbSymbolTableRecord
100
AcDbBlockTableRecord
  2
SRVPNO5
340
0
102
{BLKREFS
331
169
331
164
331
15F
331
15A
331
155
331
150
331
14B
331
13C
331
109
331
104
331
F9
102
}
 70
     0
280
     1
281
     0
  0
BLOCK_RECORD
  5
77
330
18
100
AcDbSymbolTableRecord
100
AcDbBlockTableRecord
  2
SPT2
340
0
102
{BLKREFS
331
D1
331
CB
331
CA
331
B9
331
B8
331
B7
331
B6
331
B5
331
B4
331
B3
331
7C
331
7B
331
76
102
}
 70
     0
280
     1
281
     0
  0
BLOCK_RECORD
  5
11E
330
18
100
AcDbSymbolTableRecord
100
AcDbBlockTableRecord
  2
SRVPNO1
340
0
102
{BLKREFS
331
186
331
178
331
11D
102
}
 70
     0
280
     1
281
     0
  0
BLOCK_RECORD
  5
8E
330
18
100
AcDbSymbolTableRecord
100
AcDbBlockTableRecord
  2
SRVPNO2
340
0
102
{BLKREFS
331
18B
331
181
331
173
331
16E
331
12D
331
128
331
8D
331
118
331
113
331
10E
331
D3
102
}
 70
     0
280
     1
281
     0
  0
ENDTAB
  0
ENDSEC
  0
SECTION
  2
BLOCKS
  0
BLOCK
  5
1C
330
19
100
AcDbEntity
  8
0
100
AcDbBlockBegin
  2
*Model_Space
 70
     0
 10
0.0
 20
0.0
 30
0.0
  3
*Model_Space
  1

  0
ENDBLK
  5
1F
330
19
100
AcDbEntity
  8
0
100
AcDbBlockEnd
  0
BLOCK
  5
23
330
22
100
AcDbEntity
 67
     1
  8
0
100
AcDbBlockBegin
  2
*Paper_Space
 70
     0
 10
0.0
 20
0.0
 30
0.0
  3
*Paper_Space
  1

  0
ENDBLK
  5
24
330
22
100
AcDbEntity
 67
     1
  8
0
100
AcDbBlockEnd
  0
BLOCK
  5
BD
330
BC
100
AcDbEntity
  8
0
100
AcDbBlockBegin
  2
SPT204
 70
     0
 10
0.0
 20
0.0
 30
0.0
  3
SPT204
  1

  0
CIRCLE
  5
BE
330
BC
100
AcDbEntity
  8
0
 62
     0
370
    13
100
AcDbCircle
 10
-0.0000070984440086
 20
-0.0000148689398629
 30
0.0
 40
0.492262422425285
  0
LINE
  5
BF
330
BC
100
AcDbEntity
  8
0
 62
     0
370
    13
100
AcDbLine
 10
-0.3447439960030039
 20
-0.3447770206191425
 30
0.0
 11
0.3487399748741637
 21
0.3487399748768572
 31
0.0
  0
LINE
  5
C0
330
BC
100
AcDbEntity
  8
0
 62
     0
370
    13
100
AcDbLine
 10
-0.1277722502692527
 20
0.4767433974741189
 30
0.0
 11
-0.4805082040260515
 21
0.1239744190984871
 31
0.0
  0
LINE
  5
C1
330
BC
100
AcDbEntity
  8
0
 62
     0
370
    13
100
AcDbLine
 10
-0.4727474186002638
 20
0.1317352045242757
 30
0.0
 11
0.1317352045215827
 21
-0.4727804432164042
 31
0.0
  0
LINE
  5
C2
330
BC
100
AcDbEntity
  8
0
 62
     0
370
    13
100
AcDbLine
 10
0.4727474185926113
 20
-0.1202756617914376
 30
0.0
 11
0.1317352045215827
 21
-0.4687514397187607
 31
0.0
  0
LINE
  5
C3
330
BC
100
AcDbEntity
  8
0
 62
     0
370
    13
100
AcDbLine
 10
-0.465019657793313
 20
-0.1627783462296923
 30
0.0
 11
0.1627453216059038
 21
0.4687514397164985
 31
0.0
  0
LINE
  5
C4
330
BC
100
AcDbEntity
  8
0
 62
     0
370
    13
100
AcDbLine
 10
-0.1667413004923617
 20
-0.4650196577906156
 30
0.0
 11
0.4649866331668235
 21
0.1627453216085968
 31
0.0
  0
LINE
  5
C5
330
BC
100
AcDbEntity
  8
0
 62
     0
370
    13
100
AcDbLine
 10
0.4727474185926113
 20
-0.1240074437195826
 30
0.0
 11
-0.1277722502692527
 21
0.4767433974741189
 31
0.0
  0
LINE
  5
C6
330
BC
100
AcDbEntity
  8
0
 62
     0
370
    13
100
AcDbLine
 10
0.3447439959953513
 20
-0.3447770206191425
 30
0.0
 11
-0.3487729995006461
 21
0.3487399748768572
 31
0.0
  0
ENDBLK
  5
C7
330
BC
100
AcDbEntity
  8
0
100
AcDbBlockEnd
  0
BLOCK
  5
87
330
86
100
AcDbEntity
  8
0
100
AcDbBlockBegin
  2
SPT4
 70
     0
 10
0.0
 20
0.0
 30
0.0
  3
SPT4
  1

  0
CIRCLE
  5
88
330
86
100
AcDbEntity
  8
0
  6
Continuous
 62
     0
100
AcDbCircle
 10
0.0
 20
0.0
 30
0.0
 40
0.5
  0
ENDBLK
  5
89
330
86
100
AcDbEntity
  8
0
100
AcDbBlockEnd
  0
BLOCK
  5
5B
330
5A
100
AcDbEntity
  8
0
100
AcDbBlockBegin
  2
SPT5
 70
     0
 10
0.0
 20
0.0
 30
0.0
  3
SPT5
  1

  0
LWPOLYLINE
  5
5C
330
5A
100
AcDbEntity
  8
0
  6
ByBlock
 62
     0
100
AcDbPolyline
 90
        2
 70
   129
 43
0.5
 10
-0.25
 20
0.0
 42
1.0
 10
0.25
 20
0.0
 42
1.0
  0
ENDBLK
  5
5D
330
5A
100
AcDbEntity
  8
0
100
AcDbBlockEnd
  0
BLOCK
  5
7F
330
7E
100
AcDbEntity
  8
0
100
AcDbBlockBegin
  2
SPT240
 70
     0
 10
0.0
 20
0.0
 30
0.0
  3
SPT240
  1

  0
HATCH
  5
80
330
7E
100
AcDbEntity
  8
0
  6
ByBlock
 62
     0
100
AcDbHatch
 10
0.0
 20
0.0
 30
0.0
210
0.0
220
0.0
230
1.0
  2
SOLID
 70
     1
 71
     0
 91
        1
 92
        1
 93
        3
 72
     1
 10
-0.4095420210551266
 20
-0.2868135400350809
 11
0.0
 21
0.4999767398890747
 72
     1
 10
0.0
 20
0.4999767398890747
 11
0.4095555940585107
 21
-0.2868135400350809
 72
     1
 10
0.4095555940585107
 20
-0.2868135400350809
 11
-0.4095420210551266
 21
-0.2868135400350809
 97
        0
 75
     0
 76
     1
 98
        1
 10
0.0
 20
0.0
  0
CIRCLE
  5
81
330
7E
100
AcDbEntity
  8
0
100
AcDbCircle
 10
0.0
 20
0.0
 30
0.0
 40
0.5
  0
ENDBLK
  5
82
330
7E
100
AcDbEntity
  8
0
100
AcDbBlockEnd
  0
BLOCK
  5
FB
330
FA
100
AcDbEntity
  8
0
100
AcDbBlockBegin
  2
SRVPNO5
 70
     2
 10
0.0
 20
0.0
 30
0.0
  3
SRVPNO5
  1

  0
ATTDEF
  5
FC
330
FA
100
AcDbEntity
  8
PNTNO
100
AcDbText
 10
1.5
 20
0.75
 30
0.0
 40
1.0
  1

 51
15.0
  7
PTXT
100
AcDbAttributeDefinition
  3
POINT NUMBER
  2
PT#
 70
     0
280
     0
  0
ATTDEF
  5
FD
330
FA
100
AcDbEntity
  8
PNTELEV
100
AcDbText
 10
1.5
 20
-0.5
 30
0.0
 40
1.0
  1

 51
15.0
  7
PTXT
100
AcDbAttributeDefinition
  3
ELEVATION:
  2
ELEV2
 70
     0
280
     0
  0
ATTDEF
  5
FE
330
FA
100
AcDbEntity
  8
PNTDESC
100
AcDbText
 10
1.5
 20
-1.75
 30
0.0
 40
1.0
  1

 51
15.0
  7
PTXT
100
AcDbAttributeDefinition
  3
DESCRIPTION:
  2
DESC2
 70
     0
280
     0
  0
ENDBLK
  5
FF
330
FA
100
AcDbEntity
  8
0
100
AcDbBlockEnd
  0
BLOCK
  5
78
330
77
100
AcDbEntity
  8
0
100
AcDbBlockBegin
  2
SPT2
 70
     0
 10
0.0
 20
0.0
 30
0.0
  3
SPT2
  1

  0
CIRCLE
  5
79
330
77
100
AcDbEntity
  8
0
  6
Continuous
 62
     0
100
AcDbCircle
 10
0.0
 20
0.0
 30
0.0
 40
0.25
  0
ENDBLK
  5
7A
330
77
100
AcDbEntity
  8
0
100
AcDbBlockEnd
  0
BLOCK
  5
11F
330
11E
100
AcDbEntity
  8
0
100
AcDbBlockBegin
  2
SRVPNO1
 70
     2
 10
0.0
 20
0.0
 30
0.0
  3
SRVPNO1
  1

  0
ATTDEF
  5
120
330
11E
100
AcDbEntity
  8
PNTNO
100
AcDbText
 10
0.0
 20
0.75
 30
0.0
 40
1.0
  1

  7
PTXT
 72
     1
 11
0.0
 21
0.75
 31
0.0
100
AcDbAttributeDefinition
  3
POINT NUMBER
  2
PT#
 70
     0
280
     0
  0
ATTDEF
  5
121
330
11E
100
AcDbEntity
  8
PNTELEV
100
AcDbText
 10
1.5
 20
-0.5
 30
0.0
 40
1.0
  1

  7
PTXT
100
AcDbAttributeDefinition
  3
ELEVATION:
  2
ELEV2
 70
     0
280
     0
  0
ATTDEF
  5
122
330
11E
100
AcDbEntity
  8
PNTDESC
100
AcDbText
 10
0.0
 20
-1.75
 30
0.0
 40
1.0
  1

  7
PTXT
 72
     1
 11
0.0
 21
-1.75
 31
0.0
100
AcDbAttributeDefinition
  3
DESCRIPTION:
  2
DESC2
 70
     0
280
     0
  0
ENDBLK
  5
123
330
11E
100
AcDbEntity
  8
0
100
AcDbBlockEnd
  0
BLOCK
  5
8F
330
8E
100
AcDbEntity
  8
0
100
AcDbBlockBegin
  2
SRVPNO2
 70
     2
 10
0.0
 20
0.0
 30
0.0
  3
SRVPNO2
  1

  0
ATTDEF
  5
90
330
8E
100
AcDbEntity
  8
PNTNO
100
AcDbText
 10
1.5
 20
0.75
 30
0.0
 40
1.0
  1

  7
PTXT
100
AcDbAttributeDefinition
  3
POINT NUMBER
  2
PT#
 70
     0
280
     0
  0
ATTDEF
  5
95
330
8E
100
AcDbEntity
  8
PNTELEV
100
AcDbText
 10
1.5
 20
-0.5
 30
0.0
 40
1.0
  1

  7
PTXT
100
AcDbAttributeDefinition
  3
ELEVATION:
  2
ELEV2
 70
     0
280
     0
  0
ATTDEF
  5
99
330
8E
100
AcDbEntity
  8
PNTDESC
100
AcDbText
 10
1.5
 20
-1.75
 30
0.0
 40
1.0
  1

  7
PTXT
100
AcDbAttributeDefinition
  3
DESCRIPTION:
  2
DESC2
 70
     0
280
     0
  0
ENDBLK
  5
9D
330
8E
100
AcDbEntity
  8
0
100
AcDbBlockEnd
  0
ENDSEC
  0
SECTION
  2
ENTITIES
  0
POINT
  5
54
330
19
100
AcDbEntity
  8
S-BNDRY-MONUMENTS
100
AcDbPoint
 10
1203651.1568
 20
612121.9814
 30
1060.0649
1001
PNTNO
1000
TS105
1070
     1
1000

1070
     1
1001
FINISH
1000
$PROJECTPATH\CROWDERS RIDGE ROAD.crd
1000
TS105
1000
RF
1001
PT_HANDLE
1000
2ED5E
1000
2ED5C
  0
INSERT
  5
59
330
19
100
AcDbEntity
  8
S-BNDRY-MONUMENTS
100
AcDbBlockReference
  2
SPT5
 10
1203651.1568
 20
612121.9814
 30
1060.0649
 41
3.0
 42
3.0
 43
3.0
1001
SPT
1070
     1
1001
PNTNO
1000
TS105
1070
     1
1000

1070
     1
1001
FINISH
1000
$PROJECTPATH\CROWDERS RIDGE ROAD.crd
1000
TS105
1000
RF
1001
PT_HANDLE
1000
2ED5E
1000
2ED5D
  0
LWPOLYLINE
  5
5F
330
19
100
AcDbEntity
  8
S-BLDG-SHED
100
AcDbPolyline
 90
        5
 70
     0
 43
0.0
 38
1074.527
 10
1203997.969839342
 20
612218.0422267362
 10
1203985.988
 20
612247.206
 10
1204023.335797293
 20
612261.9974244859
 10
1204036.618995138
 20
612233.7625010748
 10
1203997.969839342
 20
612218.0422267362
  0
LWPOLYLINE
  5
62
330
19
100
AcDbEntity
  8
S-ROADS-RW
100
AcDbPolyline
 90
        5
 70
     0
 43
0.0
 38
1059.007
 10
1204320.632945919
 20
612405.6641062119
 10
1204379.321597627
 20
612404.7146594765
 10
1204433.130460889
 20
612413.1151736833
 10
1204480.15578421
 20
612424.7896296572
 10
1204509.914724725
 20
612438.5093701167
  0
LWPOLYLINE
  5
65
330
19
100
AcDbEntity
  8
S-ROADS-RW
100
AcDbPolyline
 90
        4
 70
     0
 43
0.0
 38
1059.007
 10
1204322.380172634
 20
612465.6386608062
 10
1204387.401954921
 20
612466.0451477967
 10
1204446.24548731
 20
612476.6554636138
 10
1204489.252855473
 20
612494.2983068564
  0
LWPOLYLINE
  5
66
330
19
100
AcDbEntity
  8
S-ROADS-GRAVEL
100
AcDbPolyline
 90
        6
 70
     0
 43
0.0
 38
1059.007
 10
1204321.331836606
 20
612429.6539280496
 10
1204377.815786025
 20
612428.8535063248
 10
1204408.785599002
 20
612430.7253963487
 10
1204445.729727521
 20
612437.0702440547
 10
1204479.075333765
 20
612446.6475356136
 10
1204496.472138586
 20
612454.6123066486
  0
LWPOLYLINE
  5
69
330
19
100
AcDbEntity
  8
S-ROADS-GRAVEL
100
AcDbPolyline
 90
        5
 70
     0
 43
0.0
 38
1059.007
 10
1204321.681281949
 20
612441.6488389687
 10
1204376.464670019
 20
612443.0354677971
 10
1204408.935472223
 20
612446.594350396
 10
1204457.124794767
 20
612455.9213567183
 10
1204484.853824429
 20
612466.6526416551
  0
LINE
  5
6A
330
19
100
AcDbEntity
  8
S-BNDRY-BOUNDARY LINE
100
AcDbLine
 10
1203934.135931256
 20
612218.604052212
 30
1058.344
 11
1203889.344151268
 21
612198.5659952225
 31
1058.344
  0
POINT
  5
6C
330
19
100
AcDbEntity
  8
S-BLDG-LINE
100
AcDbPoint
 10
1203832.2395
 20
612158.858
 30
1064.5519
1001
PNTNO
1000
TS20
1070
     1
1000

1070
     0
1001
FINISH
1000
$PROJECTPATH\CROWDERS RIDGE ROAD.crd
1000
TS20
1000
BL
1001
PT_HANDLE
1000
2EC8E
1000
2EC8C
  0
POINT
  5
6E
330
19
100
AcDbEntity
  8
S-BLDG-LINE
100
AcDbPoint
 10
1203845.8002
 20
612149.665
 30
1064.8968
1001
PNTNO
1000
TS21
1070
     1
1000

1070
     0
1001
FINISH
1000
$PROJECTPATH\CROWDERS RIDGE ROAD.crd
1000
TS21
1000
BL
1001
PT_HANDLE
1000
2EC96
1000
2EC94
  0
POINT
  5
6F
330
19
100
AcDbEntity
  8
S-BLDG-LINE
100
AcDbPoint
 10
1203812.1185
 20
612129.1149
 30
1064.1145
1001
PNTNO
1000
TS22
1070
     1
1000

1070
     0
1001
FINISH
1000
$PROJECTPATH\CROWDERS RIDGE ROAD.crd
1000
TS22
1000
BL
1001
PT_HANDLE
1000
2EC9E
1000
2EC9C
  0
POINT
  5
70
330
19
100
AcDbEntity
  8
S-BNDRY-MONUMENTS
100
AcDbPoint
 10
1203844.4842
 20
612150.3116
 30
1065.0783
1001
PNTNO
1000
TS112
1070
     1
1000

1070
     0
1001
FINISH
1000
$PROJECTPATH\CROWDERS RIDGE ROAD.crd
1000
TS112
1000
NLS
1001
PT_HANDLE
1000
2ED2E
1000
2ED2C
  0
POINT
  5
71
330
19
100
AcDbEntity
  8
S-BNDRY-MONUMENTS
100
AcDbPoint
 10
1203790.467
 20
612163.6749
 30
1064.6702
1001
PNTNO
1000
TS101
1070
     1
1000

1070
     1
1001
FINISH
1000
$PROJECTPATH\CROWDERS RIDGE ROAD.crd
1000
TS101
1000
RF
1001
PT_HANDLE
1000
2ED4E
1000
2ED4C
  0
POINT
  5
72
330
19
100
AcDbEntity
  8
S-BNDRY-MONUMENTS
100
AcDbPoint
 10
1203757.1958
 20
612248.8283
 30
1065.3953
1001
PNTNO
1000
TS103
1070
     1
1000

1070
     1
1001
FINISH
1000
$PROJECTPATH\CROWDERS RIDGE ROAD.crd
1000
TS103
1000
RF
1001
PT_HANDLE
1000
2ED56
1000
2ED54
  0
POINT
  5
73
330
19
100
AcDbEntity
  8
S-SITE-LANDSCAPING
100
AcDbPoint
 10
1203787.533
 20
612225.295
 30
1065.736
1001
PNTNO
1000
TS102
1070
     1
1000

1070
     0
1001
FINISH
1000
$PROJECTPATH\CROWDERS RIDGE ROAD.crd
1000
TS102
1000
DEFAULT
1001
PT_HANDLE
1000
2ED7E
1000
2ED7C
  0
INSERT
  5
76
330
19
100
AcDbEntity
  8
S-BLDG-LINE
100
AcDbBlockReference
  2
SPT2
 10
1203832.2395
 20
612158.858
 30
1064.5519
 41
3.0
 42
3.0
 43
3.0
 50
325.8660715075072
1001
SPT
1070
     1
1001
PNTNO
1000
TS20
1070
     1
1000

1070
     0
1001
FINISH
1000
$PROJECTPATH\CROWDERS RIDGE ROAD.crd
1000
TS20
1000
BL
1001
PT_HANDLE
1000
2EC8E
1000
2EC8D
  0
INSERT
  5
7B
330
19
100
AcDbEntity
  8
S-BLDG-LINE
100
AcDbBlockReference
  2
SPT2
 10
1203845.8002
 20
612149.665
 30
1064.8968
 41
3.0
 42
3.0
 43
3.0
 50
88.62727371406974
1001
SPT
1070
     1
1001
PNTNO
1000
TS21
1070
     1
1000

1070
     0
1001
FINISH
1000
$PROJECTPATH\CROWDERS RIDGE ROAD.crd
1000
TS21
1000
BL
1001
PT_HANDLE
1000
2EC96
1000
2EC95
  0
INSERT
  5
7C
330
19
100
AcDbEntity
  8
S-BLDG-LINE
100
AcDbBlockReference
  2
SPT2
 10
1203812.1185
 20
612129.1149
 30
1064.1145
 41
3.0
 42
3.0
 43
3.0
 50
315.3891291996306
1001
SPT
1070
     1
1001
PNTNO
1000
TS22
1070
     1
1000

1070
     0
1001
FINISH
1000
$PROJECTPATH\CROWDERS RIDGE ROAD.crd
1000
TS22
1000
BL
1001
PT_HANDLE
1000
2EC9E
1000
2EC9D
  0
INSERT
  5
7D
330
19
100
AcDbEntity
  8
S-BNDRY-MONUMENTS
100
AcDbBlockReference
  2
SPT240
 10
1203844.4842
 20
612150.3116
 30
1065.0783
 41
3.0
 42
3.0
 43
3.0
1001
SPT
1070
     1
1001
PNTNO
1000
TS112
1070
     1
1000

1070
     0
1001
FINISH
1000
$PROJECTPATH\CROWDERS RIDGE ROAD.crd
1000
TS112
1000
NLS
1001
PT_HANDLE
1000
2ED2E
1000
2ED2D
  0
INSERT
  5
83
330
19
100
AcDbEntity
  8
S-BNDRY-MONUMENTS
100
AcDbBlockReference
  2
SPT5
 10
1203790.467
 20
612163.6749
 30
1064.6702
 41
3.0
 42
3.0
 43
3.0
1001
SPT
1070
     1
1001
PNTNO
1000
TS101
1070
     1
1000

1070
     1
1001
FINISH
1000
$PROJECTPATH\CROWDERS RIDGE ROAD.crd
1000
TS101
1000
RF
1001
PT_HANDLE
1000
2ED4E
1000
2ED4D
  0
INSERT
  5
84
330
19
100
AcDbEntity
  8
S-BNDRY-MONUMENTS
100
AcDbBlockReference
  2
SPT5
 10
1203757.1958
 20
612248.8283
 30
1065.3953
 41
3.0
 42
3.0
 43
3.0
1001
SPT
1070
     1
1001
PNTNO
1000
TS103
1070
     1
1000

1070
     1
1001
FINISH
1000
$PROJECTPATH\CROWDERS RIDGE ROAD.crd
1000
TS103
1000
RF
1001
PT_HANDLE
1000
2ED56
1000
2ED55
  0
INSERT
  5
85
330
19
100
AcDbEntity
  8
S-SITE-LANDSCAPING
100
AcDbBlockReference
  2
SPT4
 10
1203787.533
 20
612225.295
 30
1065.736
 41
3.0
 42
3.0
 43
3.0
1001
SPT
1070
     1
1001
PNTNO
1000
TS102
1070
     1
1000

1070
     0
1001
FINISH
1000
$PROJECTPATH\CROWDERS RIDGE ROAD.crd
1000
TS102
1000
DEFAULT
1001
PT_HANDLE
1000
2ED7E
1000
2ED7D
  0
LINE
  5
8A
330
19
100
AcDbEntity
  8
S-BNDRY-BOUNDARY LINE
100
AcDbLine
 10
1203958.985810224
 20
612153.6606994636
 30
1058.344
 11
1203934.135931256
 21
612218.6040522121
 31
1058.344
  0
INSERT
  5
8B
330
19
100
AcDbEntity
  8
S-BNDRY-MONUMENTS
100
AcDbBlockReference
  2
SPT5
 10
1203868.7409
 20
612394.907
 30
1062.8939
 41
2.8
 42
2.8
 43
2.8
1001
SPT
1070
     1
1001
PNTNO
1000
TS116
1070
     1
1000

1070
     1
1001
FINISH
1000
$PROJECTPATH\CROWDERS RIDGE ROAD.crd
1000
TS116
1000
RF
1001
PT_HANDLE
1000
2EE0D
1000
2EE0C
  0
POINT
  5
8C
330
19
100
AcDbEntity
  8
S-BNDRY-MONUMENTS
100
AcDbPoint
 10
1203868.7409
 20
612394.907
 30
1062.8939
1001
PNTNO
1000
TS116
1070
     1
1000

1070
     1
1001
FINISH
1000
$PROJECTPATH\CROWDERS RIDGE ROAD.crd
1000
TS116
1000
RF
1001
PT_HANDLE
1000
2EE0D
1000
2EE0B
  0
INSERT
  5
8D
330
19
100
AcDbEntity
  8
S-BNDRY-MONUMENTS
100
AcDbBlockReference
 66
     1
  2
SRVPNO2
 10
1203868.7409
 20
612394.907
 30
1062.8939
 41
0.4
 42
0.4
 43
0.4
1001
FINISH
1000
$PROJECTPATH\CROWDERS RIDGE ROAD.crd
1000
TS116
1000
RF
1001
PNTNO
1000
TS116
1070
     1
1000

1070
     1
1001
PT_HANDLE
1000
2EE0C
1000
2EE0B
  0
ATTRIB
  5
9E
330
8D
100
AcDbEntity
  8
PNTNO
100
AcDbText
 10
1203869.3409
 20
612395.207
 30
1062.8939
 40
0.4
  1
TS116
  7
PTXT
100
AcDbAttribute
  2
PT#
 70
     0
280
     0
  0
ATTRIB
  5
9F
330
8D
100
AcDbEntity
  8
PNTELEV
100
AcDbText
 10
1203869.3409
 20
612394.707
 30
1062.8939
 40
0.4
  1
1062.89
  7
PTXT
100
AcDbAttribute
  2
ELEV2
 70
     0
280
     0
  0
ATTRIB
  5
A0
330
8D
100
AcDbEntity
  8
PNTDESC
100
AcDbText
 10
1203869.3409
 20
612394.207
 30
1062.8939
 40
0.4
  1
RF
  7
PTXT
100
AcDbAttribute
  2
DESC2
 70
     0
280
     0
  0
SEQEND
  5
A1
330
8D
100
AcDbEntity
  8
S-BNDRY-MONUMENTS
  0
POINT
  5
A2
330
19
100
AcDbEntity
  8
S-BNDRY-MONUMENTS
100
AcDbPoint
 10
1203843.2938
 20
612345.9928
 30
1065.1558
1001
PNTNO
1000
TS109
1070
     1
1000

1070
     0
1001
FINISH
1000
$PROJECTPATH\CROWDERS RIDGE ROAD.crd
1000
TS109
1000
NLS
1001
PT_HANDLE
1000
2ED16
1000
2ED14
  0
POINT
  5
A3
330
19
100
AcDbEntity
  8
S-BNDRY-MONUMENTS
100
AcDbPoint
 10
1203845.746
 20
612352.5245
 30
1065.5729
1001
PNTNO
1000
TS110
1070
     1
1000

1070
     0
1001
FINISH
1000
$PROJECTPATH\CROWDERS RIDGE ROAD.crd
1000
TS110
1000
NLS
1001
PT_HANDLE
1000
2ED1E
1000
2ED1C
  0
INSERT
  5
A4
330
19
100
AcDbEntity
  8
S-BNDRY-MONUMENTS
100
AcDbBlockReference
  2
SPT240
 10
1203843.2938
 20
612345.9928
 30
1065.1558
 41
3.0
 42
3.0
 43
3.0
1001
SPT
1070
     1
1001
PNTNO
1000
TS109
1070
     1
1000

1070
     0
1001
FINISH
1000
$PROJECTPATH\CROWDERS RIDGE ROAD.crd
1000
TS109
1000
NLS
1001
PT_HANDLE
1000
2ED16
1000
2ED15
  0
INSERT
  5
A5
330
19
100
AcDbEntity
  8
S-BNDRY-MONUMENTS
100
AcDbBlockReference
  2
SPT240
 10
1203845.746
 20
612352.5245
 30
1065.5729
 41
3.0
 42
3.0
 43
3.0
1001
SPT
1070
     1
1001
PNTNO
1000
TS110
1070
     1
1000

1070
     0
1001
FINISH
1000
$PROJECTPATH\CROWDERS RIDGE ROAD.crd
1000
TS110
1000
NLS
1001
PT_HANDLE
1000
2ED1E
1000
2ED1D
  0
LINE
  5
A6
330
19
100
AcDbEntity
  8
S-BNDRY-BOUNDARY LINE
100
AcDbLine
 10
1204256.139639739
 20
612163.5233761164
 30
1058.344
 11
1203958.985810224
 21
612153.6606994636
 31
1058.344
  0
LINE
  5
A7
330
19
100
AcDbEntity
  8
S-BNDRY-BOUNDARY LINE
100
AcDbLine
 10
1203934.267218997
 20
612218.4822879636
 30
1059.007
 11
1203889.46177842
 21
612198.4747949385
 31
1059.007
  0
LINE
  5
A8
330
19
100
AcDbEntity
  8
S-BNDRY-BOUNDARY LINE
100
AcDbLine
 10
1203959.072784421
 20
612153.5219964394
 30
1059.007
 11
1203934.267218997
 21
612218.4822879637
 31
1059.007
  0
LINE
  5
A9
330
19
100
AcDbEntity
  8
S-BNDRY-BOUNDARY LINE
100
AcDbLine
 10
1204256.233273614
 20
612163.1819368744
 30
1059.007
 11
1203959.072784421
 21
612153.5219964394
 31
1059.007
  0
POINT
  5
AA
330
19
100
AcDbEntity
  8
S-BLDG-LINE
100
AcDbPoint
 10
1203887.3347
 20
612256.2468
 30
1066.1925
1001
PNTNO
1000
TS25
1070
     1
1000

1070
     0
1001
FINISH
1000
$PROJECTPATH\CROWDERS RIDGE ROAD.crd
1000
TS25
1000
BL
1001
PT_HANDLE
1000
2ECA6
1000
2ECA4
  0
POINT
  5
AB
330
19
100
AcDbEntity
  8
S-BLDG-LINE
100
AcDbPoint
 10
1203911.9514
 20
612239.6407
 30
1066.2308
1001
PNTNO
1000
TS26
1070
     1
1000

1070
     0
1001
FINISH
1000
$PROJECTPATH\CROWDERS RIDGE ROAD.crd
1000
TS26
1000
BL
1001
PT_HANDLE
1000
2ECAE
1000
2ECAC
  0
POINT
  5
AC
330
19
100
AcDbEntity
  8
S-BLDG-LINE
100
AcDbPoint
 10
1203830.7547
 20
612280.8926
 30
1067.2254
1001
PNTNO
1000
TS30
1070
     1
1000

1070
     0
1001
FINISH
1000
$PROJECTPATH\CROWDERS RIDGE ROAD.crd
1000
TS30
1000
BL
1001
PT_HANDLE
1000
2ECB6
1000
2ECB4
  0
POINT
  5
AD
330
19
100
AcDbEntity
  8
S-BLDG-LINE
100
AcDbPoint
 10
1203829.366
 20
612268.9842
 30
1067.2463
1001
PNTNO
1000
TS31
1070
     1
1000

1070
     0
1001
FINISH
1000
$PROJECTPATH\CROWDERS RIDGE ROAD.crd
1000
TS31
1000
BL
1001
PT_HANDLE
1000
2ECBE
1000
2ECBC
  0
POINT
  5
AE
330
19
100
AcDbEntity
  8
S-BLDG-LINE
100
AcDbPoint
 10
1203853.4217
 20
612266.0833
 30
1067.2982
1001
PNTNO
1000
TS32
1070
     1
1000

1070
     0
1001
FINISH
1000
$PROJECTPATH\CROWDERS RIDGE ROAD.crd
1000
TS32
1000
BL
1001
PT_HANDLE
1000
2ECC6
1000
2ECC4
  0
POINT
  5
AF
330
19
100
AcDbEntity
  8
S-BLDG-LINE
100
AcDbPoint
 10
1203828.1614
 20
612258.5815
 30
1066.103
1001
PNTNO
1000
TS33
1070
     1
1000

1070
     0
1001
FINISH
1000
$PROJECTPATH\CROWDERS RIDGE ROAD.crd
1000
TS33
1000
BL
1001
PT_HANDLE
1000
2ECCE
1000
2ECCC
  0
POINT
  5
B0
330
19
100
AcDbEntity
  8
S-BLDG-LINE
100
AcDbPoint
 10
1203851.9625
 20
612255.7814
 30
1066.4258
1001
PNTNO
1000
TS34
1070
     1
1000

1070
     0
1001
FINISH
1000
$PROJECTPATH\CROWDERS RIDGE ROAD.crd
1000
TS34
1000
BL
1001
PT_HANDLE
1000
2ECD6
1000
2ECD4
  0
POINT
  5
B1
330
19
100
AcDbEntity
  8
S-BNDRY-MONUMENTS
100
AcDbPoint
 10
1203828.2504
 20
612257.3899
 30
1066.465
1001
PNTNO
1000
TS113
1070
     1
1000

1070
     0
1001
FINISH
1000
$PROJECTPATH\CROWDERS RIDGE ROAD.crd
1000
TS113
1000
NLS
1001
PT_HANDLE
1000
2ED36
1000
2ED34
  0
POINT
  5
B2
330
19
100
AcDbEntity
  8
S-BNDRY-MONUMENTS
100
AcDbPoint
 10
1203822.803
 20
612269.625
 30
1065.722
1001
PNTNO
1000
TS1
1070
     1
1000

1070
     1
1001
FINISH
1000
$PROJECTPATH\CROWDERS RIDGE ROAD.crd
1000
TS1
1000
RS
1001
PT_HANDLE
1000
2ED76
1000
2ED74
  0
INSERT
  5
B3
330
19
100
AcDbEntity
  8
S-BLDG-LINE
100
AcDbBlockReference
  2
SPT2
 10
1203887.3347
 20
612256.2468
 30
1066.1925
 41
3.0
 42
3.0
 43
3.0
 50
12.69335062038507
1001
SPT
1070
     1
1001
PNTNO
1000
TS25
1070
     1
1000

1070
     0
1001
FINISH
1000
$PROJECTPATH\CROWDERS RIDGE ROAD.crd
1000
TS25
1000
BL
1001
PT_HANDLE
1000
2ECA6
1000
2ECA5
  0
INSERT
  5
B4
330
19
100
AcDbEntity
  8
S-BLDG-LINE
100
AcDbBlockReference
  2
SPT2
 10
1203911.9514
 20
612239.6407
 30
1066.2308
 41
3.0
 42
3.0
 43
3.0
 50
333.0672001655245
1001
SPT
1070
     1
1001
PNTNO
1000
TS26
1070
     1
1000

1070
     0
1001
FINISH
1000
$PROJECTPATH\CROWDERS RIDGE ROAD.crd
1000
TS26
1000
BL
1001
PT_HANDLE
1000
2ECAE
1000
2ECAD
  0
INSERT
  5
B5
330
19
100
AcDbEntity
  8
S-BLDG-LINE
100
AcDbBlockReference
  2
SPT2
 10
1203830.7547
 20
612280.8926
 30
1067.2254
 41
3.0
 42
3.0
 43
3.0
 50
28.2078432436819
1001
SPT
1070
     1
1001
PNTNO
1000
TS30
1070
     1
1000

1070
     0
1001
FINISH
1000
$PROJECTPATH\CROWDERS RIDGE ROAD.crd
1000
TS30
1000
BL
1001
PT_HANDLE
1000
2ECB6
1000
2ECB5
  0
INSERT
  5
B6
330
19
100
AcDbEntity
  8
S-BLDG-LINE
100
AcDbBlockReference
  2
SPT2
 10
1203829.366
 20
612268.9842
 30
1067.2463
 41
3.0
 42
3.0
 43
3.0
 50
308.2361681459157
1001
SPT
1070
     1
1001
PNTNO
1000
TS31
1070
     1
1000

1070
     0
1001
FINISH
1000
$PROJECTPATH\CROWDERS RIDGE ROAD.crd
1000
TS31
1000
BL
1001
PT_HANDLE
1000
2ECBE
1000
2ECBD
  0
INSERT
  5
B7
330
19
100
AcDbEntity
  8
S-BLDG-LINE
100
AcDbBlockReference
  2
SPT2
 10
1203853.4217
 20
612266.0833
 30
1067.2982
 41
3.0
 42
3.0
 43
3.0
 50
274.8321041600034
1001
SPT
1070
     1
1001
PNTNO
1000
TS32
1070
     1
1000

1070
     0
1001
FINISH
1000
$PROJECTPATH\CROWDERS RIDGE ROAD.crd
1000
TS32
1000
BL
1001
PT_HANDLE
1000
2ECC6
1000
2ECC5
  0
INSERT
  5
B8
330
19
100
AcDbEntity
  8
S-BLDG-LINE
100
AcDbBlockReference
  2
SPT2
 10
1203828.1614
 20
612258.5815
 30
1066.103
 41
3.0
 42
3.0
 43
3.0
 50
274.9152956898082
1001
SPT
1070
     1
1001
PNTNO
1000
TS33
1070
     1
1000

1070
     0
1001
FINISH
1000
$PROJECTPATH\CROWDERS RIDGE ROAD.crd
1000
TS33
1000
BL
1001
PT_HANDLE
1000
2ECCE
1000
2ECCD
  0
INSERT
  5
B9
330
19
100
AcDbEntity
  8
S-BLDG-LINE
100
AcDbBlockReference
  2
SPT2
 10
1203851.9625
 20
612255.7814
 30
1066.4258
 41
3.0
 42
3.0
 43
3.0
 50
1.478258583232086
1001
SPT
1070
     1
1001
PNTNO
1000
TS34
1070
     1
1000

1070
     0
1001
FINISH
1000
$PROJECTPATH\CROWDERS RIDGE ROAD.crd
1000
TS34
1000
BL
1001
PT_HANDLE
1000
2ECD6
1000
2ECD5
  0
INSERT
  5
BA
330
19
100
AcDbEntity
  8
S-BNDRY-MONUMENTS
100
AcDbBlockReference
  2
SPT240
 10
1203828.2504
 20
612257.3899
 30
1066.465
 41
3.0
 42
3.0
 43
3.0
1001
SPT
1070
     1
1001
PNTNO
1000
TS113
1070
     1
1000

1070
     0
1001
FINISH
1000
$PROJECTPATH\CROWDERS RIDGE ROAD.crd
1000
TS113
1000
NLS
1001
PT_HANDLE
1000
2ED36
1000
2ED35
  0
INSERT
  5
BB
330
19
100
AcDbEntity
  8
S-BNDRY-MONUMENTS
100
AcDbBlockReference
  2
SPT204
 10
1203822.803
 20
612269.625
 30
1065.722
 41
3.0
 42
3.0
 43
3.0
1001
SPT
1070
     1
1001
PNTNO
1000
TS1
1070
     1
1000

1070
     1
1001
FINISH
1000
$PROJECTPATH\CROWDERS RIDGE ROAD.crd
1000
TS1
1000
RS
1001
PT_HANDLE
1000
2ED76
1000
2ED75
  0
POINT
  5
C8
330
19
100
AcDbEntity
  8
S-BLDG-LINE
100
AcDbPoint
 10
1203932.0981
 20
612269.4307
 30
1066.2259
1001
PNTNO
1000
TS35
1070
     1
1000

1070
     0
1001
FINISH
1000
$PROJECTPATH\CROWDERS RIDGE ROAD.crd
1000
TS35
1000
BL
1001
PT_HANDLE
1000
2ECDE
1000
2ECDC
  0
POINT
  5
C9
330
19
100
AcDbEntity
  8
S-FENCE-FENCELINE
100
AcDbPoint
 10
1203934.814
 20
612220.0765
 30
1065.2287
1001
PNTNO
1000
TS27
1070
     1
1000

1070
     0
1001
FINISH
1000
$PROJECTPATH\CROWDERS RIDGE ROAD.crd
1000
TS27
1000
FL
1001
PT_HANDLE
1000
2ECF6
1000
2ECF4
  0
INSERT
  5
CA
330
19
100
AcDbEntity
  8
S-BLDG-LINE
100
AcDbBlockReference
  2
SPT2
 10
1203932.0981
 20
612269.4307
 30
1066.2259
 41
3.0
 42
3.0
 43
3.0
 50
9.66628413629744
1001
SPT
1070
     1
1001
PNTNO
1000
TS35
1070
     1
1000

1070
     0
1001
FINISH
1000
$PROJECTPATH\CROWDERS RIDGE ROAD.crd
1000
TS35
1000
BL
1001
PT_HANDLE
1000
2ECDE
1000
2ECDD
  0
INSERT
  5
CB
330
19
100
AcDbEntity
  8
S-FENCE-FENCELINE
 62
   252
100
AcDbBlockReference
  2
SPT2
 10
1203934.814
 20
612220.0765
 30
1065.2287
 41
3.0
 42
3.0
 43
3.0
 50
12.39736607584924
1001
SPT
1070
     1
1001
PNTNO
1000
TS27
1070
     1
1000

1070
     0
1001
FINISH
1000
$PROJECTPATH\CROWDERS RIDGE ROAD.crd
1000
TS27
1000
FL
1001
PT_HANDLE
1000
2ECF6
1000
2ECF5
  0
POINT
  5
CC
330
19
100
AcDbEntity
  8
S-BNDRY-MONUMENTS
100
AcDbPoint
 10
1204085.5816
 20
612166.2225
 30
1060.6889
1001
PNTNO
1000
TS108
1070
     1
1000

1070
     0
1001
FINISH
1000
$PROJECTPATH\CROWDERS RIDGE ROAD.crd
1000
TS108
1000
NLS
1001
PT_HANDLE
1000
2ED0E
1000
2ED0C
  0
POINT
  5
CD
330
19
100
AcDbEntity
  8
S-FENCE-POST
100
AcDbPoint
 10
1204096.9464
 20
612166.6816
 30
1065.8261
1001
PNTNO
1000
TS107
1070
     1
1000

1070
     1
1001
FINISH
1000
$PROJECTPATH\CROWDERS RIDGE ROAD.crd
1000
TS107
1000
POST
1001
PT_HANDLE
1000
2ED3E
1000
2ED3C
  0
POINT
  5
CF
330
19
100
AcDbEntity
  8
S-BNDRY-MONUMENTS
100
AcDbPoint
 10
1204073.2463
 20
612165.4499
 30
1061.6426
1001
PNTNO
1000
TS106
1070
     1
1000

1070
     1
1001
FINISH
1000
$PROJECTPATH\CROWDERS RIDGE ROAD.crd
1000
TS106
1000
RF
1001
PT_HANDLE
1000
2ED66
1000
2ED64
  0
INSERT
  5
D0
330
19
100
AcDbEntity
  8
S-BNDRY-MONUMENTS
100
AcDbBlockReference
  2
SPT240
 10
1204085.5816
 20
612166.2225
 30
1060.6889
 41
3.0
 42
3.0
 43
3.0
1001
SPT
1070
     1
1001
PNTNO
1000
TS108
1070
     1
1000

1070
     0
1001
FINISH
1000
$PROJECTPATH\CROWDERS RIDGE ROAD.crd
1000
TS108
1000
NLS
1001
PT_HANDLE
1000
2ED0E
1000
2ED0D
  0
INSERT
  5
D1
330
19
100
AcDbEntity
  8
S-FENCE-POST
 62
   252
100
AcDbBlockReference
  2
SPT2
 10
1204096.9464
 20
612166.6816
 30
1065.8261
 41
3.0
 42
3.0
 43
3.0
1001
SPT
1070
     1
1001
PNTNO
1000
TS107
1070
     1
1000

1070
     1
1001
FINISH
1000
$PROJECTPATH\CROWDERS RIDGE ROAD.crd
1000
TS107
1000
POST
1001
PT_HANDLE
1000
2ED3E
1000
2ED3D
  0
INSERT
  5
D2
330
19
100
AcDbEntity
  8
S-BNDRY-MONUMENTS
100
AcDbBlockReference
  2
SPT5
 10
1204073.2463
 20
612165.4499
 30
1061.6426
 41
3.0
 42
3.0
 43
3.0
1001
SPT
1070
     1
1001
PNTNO
1000
TS106
1070
     1
1000

1070
     1
1001
FINISH
1000
$PROJECTPATH\CROWDERS RIDGE ROAD.crd
1000
TS106
1000
RF
1001
PT_HANDLE
1000
2ED66
1000
2ED65
  0
INSERT
  5
D3
330
19
100
AcDbEntity
  8
S-BNDRY-MONUMENTS
100
AcDbBlockReference
 66
     1
  2
SRVPNO2
 10
1203651.1568
 20
612121.9814
 30
1060.0649
 41
3.0
 42
3.0
 43
3.0
1001
FINISH
1000
$PROJECTPATH\CROWDERS RIDGE ROAD.crd
1000
TS105
1000
RF
1001
PNTNO
1000
TS105
1070
     1
1000

1070
     1
1001
PT_HANDLE
1000
2ED5D
1000
2ED5C
  0
ATTRIB
  5
D4
330
D3
100
AcDbEntity
  8
PNTNO
100
AcDbText
 10
1203655.656800001
 20
612124.2314000004
 30
0.0
 40
3.0
  1
TS105
  7
PTXT
100
AcDbAttribute
  2
PT#
 70
     0
280
     0
  0
ATTRIB
  5
D5
330
D3
100
AcDbEntity
  8
PNTELEV
100
AcDbText
 10
1203655.656800001
 20
612120.4814000004
 30
0.0
 40
3.0
  1
1060.06
  7
PTXT
100
AcDbAttribute
  2
ELEV2
 70
     0
280
     0
  0
ATTRIB
  5
D6
330
D3
100
AcDbEntity
  8
PNTDESC
100
AcDbText
 10
1203655.656800001
 20
612116.7314000004
 30
0.0
 40
3.0
  1
RF
  7
PTXT
100
AcDbAttribute
  2
DESC2
 70
     0
280
     0
  0
SEQEND
  5
D7
330
D3
100
AcDbEntity
  8
S-BNDRY-MONUMENTS
  0
LWPOLYLINE
  5
D8
330
19
100
AcDbEntity
  8
S-ROADS-GRAVEL
100
AcDbPolyline
 90
        2
 70
     0
 43
0.0
 10
1203675.061
 20
612186.278
 10
1203685.705427249
 20
612190.2933994818
  0
LWPOLYLINE
  5
D9
330
19
100
AcDbEntity
  8
S-ROADS-GRAVEL
100
AcDbPolyline
 90
        7
 70
     0
 43
0.0
 10
1203713.635
 20
612224.7829999999
 10
1203696.990671486
 20
612239.4181615389
 10
1203694.822464071
 20
612242.8511566137
 10
1203695.274173949
 20
612247.5489393476
 10
1203698.436143097
 20
612254.0535615946
 10
1203693.286650485
 20
612260.0161319877
 10
1203685.998
 20
612264.608
  0
LINE
  5
DA
330
19
100
AcDbEntity
  8
S-BLDG-LINE
 62
     3
100
AcDbLine
 10
1203856.834816608
 20
612263.8516388836
 30
0.0
 11
1203856.834816608
 21
612263.8516388836
 31
0.0
  0
LINE
  5
DB
330
19
100
AcDbEntity
  8
S-BLDG-LINE
 62
     3
100
AcDbLine
 10
1203856.834816608
 20
612263.8516388835
 30
0.0
 11
1203856.957677244
 21
612264.0341361826
 31
0.0
  0
LINE
  5
DC
330
19
100
AcDbEntity
  8
S-BLDG-LINE
 62
     3
100
AcDbLine
 10
1203900.703498289
 20
612276.184341013
 30
0.0
 11
1203900.52100099
 21
612276.3072016495
 31
0.0
  0
LINE
  5
DD
330
19
100
AcDbEntity
  8
S-BLDG-LINE
 62
     3
100
AcDbLine
 10
1203925.406996258
 20
612259.5534784958
 30
0.0
 11
1203925.22449896
 21
612259.6763391322
 31
0.0
  0
LINE
  5
DE
330
19
100
AcDbEntity
  8
S-BLDG-LINE
 62
     3
100
AcDbLine
 10
1203912.004017736
 20
612239.6446822813
 30
0.0
 11
1203912.004017736
 21
612239.6446822813
 31
0.0
  0
LWPOLYLINE
  5
DF
330
19
100
AcDbEntity
  8
S-ROADS-GRAVEL
100
AcDbPolyline
 90
       12
 70
     0
 43
0.0
 10
1203544.932
 20
612271.391
 10
1203557.275473567
 20
612273.7904062659
 10
1203564.458780725
 20
612282.1877935065
 10
1203573.969074708
 20
612283.3007002493
 10
1203579.02774172
 20
612282.6936602078
 10
1203586.008702198
 20
612292.8109942328
 10
1203593.495529376
 20
612300.7025147723
 10
1203598.857716409
 20
612307.6834752494
 10
1203605.433983526
 20
612314.6644357267
 10
1203607.15393031
 20
612317.0925958927
 10
1203614.539584148
 20
612313.3491823034
 10
1203619.968956603
 20
612310.2072758388
  0
LWPOLYLINE
  5
E0
330
19
100
AcDbEntity
  8
S-BLDG-LINE
 62
     1
100
AcDbPolyline
 90
        4
 70
     0
 43
0.0
 10
1203590.325
 20
612267.116
 10
1203583.448
 20
612256.365
 10
1203616.837
 20
612233.992
 10
1203623.913567874
 20
612244.5035402123
  0
LWPOLYLINE
  5
E1
330
19
100
AcDbEntity
  8
S-BLDG-LINE
100
AcDbPolyline
 90
        4
 70
     0
 43
0.0
 10
1203722.011
 20
612225.796
 10
1203731.276
 20
612214.982
 10
1203755.582
 20
612236.019
 10
1203746.506
 20
612247.241
  0
LWPOLYLINE
  5
E2
330
19
100
AcDbEntity
  8
S-ROADS-GRAVEL
100
AcDbPolyline
 90
       11
 70
     0
 43
0.0
 10
1203665.924449416
 20
612191.6996061896
 10
1203666.443
 20
612192.687
 10
1203669.051
 20
612196.206
 10
1203670.191
 20
612199.983
 10
1203669.16
 20
612202.098
 10
1203665.897
 20
612205.258
 10
1203656.777
 20
612212.546
 10
1203643.495137594
 20
612222.2999012023
 10
1203633.124870218
 20
612228.7497016432
 10
1203624.904536323
 20
612233.934835331
 10
1203616.837
 20
612233.992
  0
LWPOLYLINE
  5
E3
330
19
100
AcDbEntity
  8
S-ROADS-GRAVEL
100
AcDbPolyline
 90
        2
 70
     0
 43
0.0
 10
1203797.489
 20
612076.633
 42
-0.1337985347097449
 10
1203772.503
 20
612018.6329999999
  0
LWPOLYLINE
  5
E4
330
19
100
AcDbEntity
  8
S-ROADS-GRAVEL
100
AcDbPolyline
 90
        3
 70
     0
 43
0.0
 10
1203772.503
 20
612018.6329999999
 10
1203768.572
 20
612004.9459999999
 10
1203769.71
 20
611996.6729999998
  0
LWPOLYLINE
  5
E5
330
19
100
AcDbEntity
  8
S-BLDG-LINE
100
AcDbPolyline
 90
        2
 70
     0
 43
0.0
 10
1203722.011
 20
612225.796
 10
1203746.506
 20
612247.241
  0
POLYLINE
  5
E6
330
19
100
AcDbEntity
  8
S-BLDG-LINE
 62
     1
100
AcDb2dPolyline
 66
     1
 10
0.0
 20
0.0
 30
0.0
 70
     1
  0
VERTEX
  5
E7
330
E6
100
AcDbEntity
  8
S-BLDG-LINE
 62
     1
100
AcDbVertex
100
AcDb2dVertex
 10
1203612.807
 20
612300.588
 30
0.0
  0
VERTEX
  5
E8
330
E6
100
AcDbEntity
  8
S-BLDG-LINE
 62
     1
100
AcDbVertex
100
AcDb2dVertex
 10
1203679.298
 20
612255.825
 30
0.0
  0
VERTEX
  5
E9
330
E6
100
AcDbEntity
  8
S-BLDG-LINE
 62
     1
100
AcDbVertex
100
AcDb2dVertex
 10
1203656.816
 20
612222.353
 30
0.0
  0
VERTEX
  5
EA
330
E6
100
AcDbEntity
  8
S-BLDG-LINE
 62
     1
100
AcDbVertex
100
AcDb2dVertex
 10
1203590.325
 20
612267.116
 30
0.0
  0
SEQEND
  5
EB
330
E6
100
AcDbEntity
  8
S-BLDG-LINE
 62
     1
  0
LWPOLYLINE
  5
EC
330
19
100
AcDbEntity
  8
S-ROADS-GRAVEL
100
AcDbPolyline
 90
        2
 70
     0
 43
0.0
 10
1203779.767235029
 20
612154.3994303987
 10
1203792.99
 20
612135.7899999998
  0
LWPOLYLINE
  5
ED
330
19
100
AcDbEntity
  8
S-ROADS-GRAVEL
100
AcDbPolyline
 90
        2
 70
     0
 43
0.0
 10
1203727.473
 20
612210.3619999998
 10
1203731.276
 20
612214.982
  0
LWPOLYLINE
  5
EE
330
19
100
AcDbEntity
  8
S-ROADS-GRAVEL
100
AcDbPolyline
 90
        3
 70
     0
 43
0.0
 10
1203748.296860945
 20
612217.4532964148
 10
1203760.830622542
 20
612229.1940146419
 10
1203755.582
 20
612236.019
  0
LWPOLYLINE
  5
EF
330
19
100
AcDbEntity
  8
S-ROADS-GRAVEL
100
AcDbPolyline
 90
        3
 70
     0
 43
0.0
 10
1203781.308204608
 20
612152.2307034949
 42
-0.5375621007307517
 10
1203784.377425494
 20
612166.3307572467
 10
1203793.280679436
 20
612168.5970400684
  0
LWPOLYLINE
  5
F0
330
19
100
AcDbEntity
  8
S-ROADS-GRAVEL
100
AcDbPolyline
 90
        2
 70
     0
 43
0.0
 10
1203784.474
 20
612122.4170000001
 42
-0.1680046798381435
 10
1203780.158
 20
612064.0760000001
  0
LWPOLYLINE
  5
F1
330
19
100
AcDbEntity
  8
S-ROADS-GRAVEL
100
AcDbPolyline
 90
        7
 70
     0
 43
0.0
 10
1203784.474
 20
612122.4170000002
 10
1203772.525
 20
612144.3300000002
 10
1203755.599
 20
612166.1860000003
 10
1203739.424
 20
612181.2000000002
 10
1203716.939
 20
612178.7050000002
 10
1203699.237
 20
612181.3820000002
 10
1203685.705427249
 20
612190.293399482
  0
LWPOLYLINE
  5
F2
330
19
100
AcDbEntity
  8
S-ROADS-GRAVEL
100
AcDbPolyline
 90
        2
 70
     0
 43
0.0
 10
1203797.489
 20
612076.6329999999
 42
0.1671220545394702
 10
1203792.99
 20
612135.7899999998
  0
POLYLINE
  5
F3
330
19
100
AcDbEntity
  8
S-BLDG-LINE
100
AcDb2dPolyline
 66
     1
 10
0.0
 20
0.0
 30
0.0
 70
     1
  0
VERTEX
  5
F4
330
F3
100
AcDbEntity
  8
S-BLDG-LINE
100
AcDbVertex
100
AcDb2dVertex
 10
1203845.8002
 20
612149.665
 30
0.0
  0
VERTEX
  5
F5
330
F3
100
AcDbEntity
  8
S-BLDG-LINE
100
AcDbVertex
100
AcDb2dVertex
 10
1203832.2395
 20
612158.858
 30
0.0
  0
VERTEX
  5
F6
330
F3
100
AcDbEntity
  8
S-BLDG-LINE
100
AcDbVertex
100
AcDb2dVertex
 10
1203812.1185
 20
612129.1149
 30
0.0
  0
VERTEX
  5
F7
330
F3
100
AcDbEntity
  8
S-BLDG-LINE
100
AcDbVertex
100
AcDb2dVertex
 10
1203825.6792
 20
612119.9219000001
 30
0.0
  0
SEQEND
  5
F8
330
F3
100
AcDbEntity
  8
S-BLDG-LINE
  0
INSERT
  5
F9
330
19
100
AcDbEntity
  8
S-BLDG-LINE
100
AcDbBlockReference
 66
     1
  2
SRVPNO5
 10
1203832.2395
 20
612158.858
 30
1064.5519
 41
3.0
 42
3.0
 43
3.0
 50
325.8660715075072
1001
FINISH
1000
$PROJECTPATH\CROWDERS RIDGE ROAD.crd
1000
TS20
1000
BL
1001
PNTNO
1000
TS20
1070
     1
1000

1070
     0
1001
PT_HANDLE
1000
2EC8D
1000
2EC8C
  0
ATTRIB
  5
100
330
F9
100
AcDbEntity
  8
PNTNO
100
AcDbText
 10
1203843.006451448
 20
612139.0229217709
 30
0.0
 40
3.0
  1
TS20
 50
56.49269351134626
 51
15.00000000000002
  7
PTXT
100
AcDbAttribute
  2
PT#
 70
     0
280
     0
  0
ATTRIB
  5
101
330
F9
100
AcDbEntity
  8
PNTELEV
100
AcDbText
 10
1203835.122583029
 20
612155.0913261035
 30
0.0
 40
3.0
  1

 50
325.8660715075072
 51
15.00000000000002
  7
PTXT
100
AcDbAttribute
  2
ELEV2
 70
     0
280
     0
  0
ATTRIB
  5
102
330
F9
100
AcDbEntity
  8
PNTDESC
100
AcDbText
 10
1203833.01834837
 20
612151.9873453579
 30
0.0
 40
3.0
  1
BL
 50
325.8660715075072
 51
15.00000000000002
  7
PTXT
100
AcDbAttribute
  2
DESC2
 70
     0
280
     0
  0
SEQEND
  5
103
330
F9
100
AcDbEntity
  8
S-BLDG-LINE
  0
INSERT
  5
104
330
19
100
AcDbEntity
  8
S-BLDG-LINE
100
AcDbBlockReference
 66
     1
  2
SRVPNO5
 10
1203845.8002
 20
612149.665
 30
1064.8968
 41
3.0
 42
3.0
 43
3.0
 50
88.62727371406974
1001
FINISH
1000
$PROJECTPATH\CROWDERS RIDGE ROAD.crd
1000
TS21
1000
BL
1001
PNTNO
1000
TS21
1070
     1
1000

1070
     0
1001
PT_HANDLE
1000
2EC95
1000
2EC94
  0
ATTRIB
  5
105
330
104
100
AcDbEntity
  8
PNTNO
100
AcDbText
 10
1203823.947474049
 20
612159.6930926235
 30
0.0
 40
3.0
  1
TS21
 50
6.809050179752054
 51
15.00000000000002
  7
PTXT
100
AcDbAttribute
  2
PT#
 70
     0
280
     0
  0
ATTRIB
  5
106
330
104
100
AcDbEntity
  8
PNTELEV
100
AcDbText
 10
1203847.407572865
 20
612154.1277740793
 30
0.0
 40
3.0
  1

 50
88.62727371406974
 51
15.00000000000002
  7
PTXT
100
AcDbAttribute
  2
ELEV2
 70
     0
280
     0
  0
ATTRIB
  5
107
330
104
100
AcDbEntity
  8
PNTDESC
100
AcDbText
 10
1203851.156496643
 20
612154.0379379482
 30
0.0
 40
3.0
  1
BL
 50
88.62727371406974
 51
15.00000000000002
  7
PTXT
100
AcDbAttribute
  2
DESC2
 70
     0
280
     0
  0
SEQEND
  5
108
330
104
100
AcDbEntity
  8
S-BLDG-LINE
  0
INSERT
  5
109
330
19
100
AcDbEntity
  8
S-BLDG-LINE
100
AcDbBlockReference
 66
     1
  2
SRVPNO5
 10
1203812.1185
 20
612129.1149
 30
1064.1145
 41
3.0
 42
3.0
 43
3.0
 50
315.3891291996306
1001
FINISH
1000
$PROJECTPATH\CROWDERS RIDGE ROAD.crd
1000
TS22
1000
BL
1001
PNTNO
1000
TS22
1070
     1
1000

1070
     0
1001
PT_HANDLE
1000
2EC9D
1000
2EC9C
  0
ATTRIB
  5
10A
330
109
100
AcDbEntity
  8
PNTNO
100
AcDbText
 10
1203803.152608774
 20
612130.1106561389
 30
0.0
 40
3.0
  1
TS22
 50
322.1364823843298
 51
15.00000000000002
  7
PTXT
100
AcDbAttribute
  2
PT#
 70
     0
280
     0
  0
ATTRIB
  5
10B
330
109
100
AcDbEntity
  8
PNTELEV
100
AcDbText
 10
1203814.268585457
 20
612124.8867641789
 30
0.0
 40
3.0
  1

 50
315.3891291996306
 51
15.00000000000002
  7
PTXT
100
AcDbAttribute
  2
ELEV2
 70
     0
280
     0
  0
ATTRIB
  5
10C
330
109
100
AcDbEntity
  8
PNTDESC
100
AcDbText
 10
1203811.635004954
 20
612122.2171661285
 30
0.0
 40
3.0
  1
BL
 50
315.3891291996306
 51
15.00000000000002
  7
PTXT
100
AcDbAttribute
  2
DESC2
 70
     0
280
     0
  0
SEQEND
  5
10D
330
109
100
AcDbEntity
  8
S-BLDG-LINE
  0
INSERT
  5
10E
330
19
100
AcDbEntity
  8
S-BNDRY-MONUMENTS
100
AcDbBlockReference
 66
     1
  2
SRVPNO2
 10
1203844.4842
 20
612150.3116
 30
1065.0783
 41
3.0
 42
3.0
 43
3.0
1001
FINISH
1000
$PROJECTPATH\CROWDERS RIDGE ROAD.crd
1000
TS112
1000
NLS
1001
PNTNO
1000
TS112
1070
     1
1000

1070
     0
1001
PT_HANDLE
1000
2ED2D
1000
2ED2C
  0
ATTRIB
  5
10F
330
10E
100
AcDbEntity
  8
PNTNO
100
AcDbText
 10
1203844.550408308
 20
612151.4093960644
 30
0.0
 40
3.0
  1
TS112
 50
59.11694169616656
  7
PTXT
100
AcDbAttribute
  2
PT#
 70
     0
280
     0
  0
ATTRIB
  5
110
330
10E
100
AcDbEntity
  8
PNTELEV
100
AcDbText
 10
1203848.984200004
 20
612148.8115999986
 30
0.0
 40
3.0
  1
1065.08
  7
PTXT
100
AcDbAttribute
  2
ELEV2
 70
     0
280
     0
  0
ATTRIB
  5
111
330
10E
100
AcDbEntity
  8
PNTDESC
100
AcDbText
 10
1203848.984200004
 20
612145.0616000039
 30
0.0
 40
3.0
  1
NLS
  7
PTXT
100
AcDbAttribute
  2
DESC2
 70
     0
280
     0
  0
SEQEND
  5
112
330
10E
100
AcDbEntity
  8
S-BNDRY-MONUMENTS
  0
INSERT
  5
113
330
19
100
AcDbEntity
  8
S-BNDRY-MONUMENTS
100
AcDbBlockReference
 66
     1
  2
SRVPNO2
 10
1203790.467
 20
612163.6749
 30
1064.6702
 41
3.0
 42
3.0
 43
3.0
1001
FINISH
1000
$PROJECTPATH\CROWDERS RIDGE ROAD.crd
1000
TS101
1000
RF
1001
PNTNO
1000
TS101
1070
     1
1000

1070
     1
1001
PT_HANDLE
1000
2ED4D
1000
2ED4C
  0
ATTRIB
  5
114
330
113
100
AcDbEntity
  8
PNTNO
100
AcDbText
 10
1203794.967000001
 20
612165.9249000003
 30
0.0
 40
3.0
  1
TS101
  7
PTXT
100
AcDbAttribute
  2
PT#
 70
     0
280
     0
  0
ATTRIB
  5
115
330
113
100
AcDbEntity
  8
PNTELEV
100
AcDbText
 10
1203794.967000001
 20
612162.1749000003
 30
0.0
 40
3.0
  1
1064.67
  7
PTXT
100
AcDbAttribute
  2
ELEV2
 70
     0
280
     0
  0
ATTRIB
  5
116
330
113
100
AcDbEntity
  8
PNTDESC
100
AcDbText
 10
1203794.967000001
 20
612158.4249000003
 30
0.0
 40
3.0
  1
RF
  7
PTXT
100
AcDbAttribute
  2
DESC2
 70
     0
280
     0
  0
SEQEND
  5
117
330
113
100
AcDbEntity
  8
S-BNDRY-MONUMENTS
  0
INSERT
  5
118
330
19
100
AcDbEntity
  8
S-BNDRY-MONUMENTS
100
AcDbBlockReference
 66
     1
  2
SRVPNO2
 10
1203757.1958
 20
612248.8283
 30
1065.3953
 41
3.0
 42
3.0
 43
3.0
1001
FINISH
1000
$PROJECTPATH\CROWDERS RIDGE ROAD.crd
1000
TS103
1000
RF
1001
PNTNO
1000
TS103
1070
     1
1000

1070
     1
1001
PT_HANDLE
1000
2ED55
1000
2ED54
  0
ATTRIB
  5
119
330
118
100
AcDbEntity
  8
PNTNO
100
AcDbText
 10
1203761.695800001
 20
612251.0783000004
 30
0.0
 40
3.0
  1
TS103
  7
PTXT
100
AcDbAttribute
  2
PT#
 70
     0
280
     0
  0
ATTRIB
  5
11A
330
118
100
AcDbEntity
  8
PNTELEV
100
AcDbText
 10
1203761.695800001
 20
612247.3283000004
 30
0.0
 40
3.0
  1
1065.40
  7
PTXT
100
AcDbAttribute
  2
ELEV2
 70
     0
280
     0
  0
ATTRIB
  5
11B
330
118
100
AcDbEntity
  8
PNTDESC
100
AcDbText
 10
1203761.695800001
 20
612243.5783000004
 30
0.0
 40
3.0
  1
RF
  7
PTXT
100
AcDbAttribute
  2
DESC2
 70
     0
280
     0
  0
SEQEND
  5
11C
330
118
100
AcDbEntity
  8
S-BNDRY-MONUMENTS
  0
INSERT
  5
11D
330
19
100
AcDbEntity
  8
S-SITE-LANDSCAPING
100
AcDbBlockReference
 66
     1
  2
SRVPNO1
 10
1203787.533
 20
612225.295
 30
1065.736
 41
3.0
 42
3.0
 43
3.0
1001
FINISH
1000
$PROJECTPATH\CROWDERS RIDGE ROAD.crd
1000
TS102
1000
DEFAULT
1001
PNTNO
1000
TS102
1070
     1
1000

1070
     0
1001
PT_HANDLE
1000
2ED7D
1000
2ED7C
  0
ATTRIB
  5
124
330
11D
100
AcDbEntity
  8
PNTNO
100
AcDbText
 10
1203781.283
 20
612227.5449999999
 30
0.0
 40
3.0
  1
TS102
  7
PTXT
 72
     1
 11
1203787.533
 21
612227.5449999999
 31
0.0
100
AcDbAttribute
  2
PT#
 70
     0
280
     0
  0
ATTRIB
  5
125
330
11D
100
AcDbEntity
  8
PNTELEV
100
AcDbText
 10
1203792.033
 20
612223.7949999999
 30
0.0
 40
3.0
  1
1065.74
  7
PTXT
100
AcDbAttribute
  2
ELEV2
 70
     0
280
     0
  0
ATTRIB
  5
126
330
11D
100
AcDbEntity
  8
PNTDESC
100
AcDbText
 10
1203769.033
 20
612220.0449999999
 30
0.0
 40
3.0
  1
Y IN CONCRETE
  7
PTXT
 72
     1
 11
1203787.533
 21
612220.0449999999
 31
0.0
100
AcDbAttribute
  2
DESC2
 70
     0
280
     0
  0
SEQEND
  5
127
330
11D
100
AcDbEntity
  8
S-SITE-LANDSCAPING
  0
INSERT
  5
128
330
19
100
AcDbEntity
  8
S-BNDRY-MONUMENTS
100
AcDbBlockReference
 66
     1
  2
SRVPNO2
 10
1203843.2938
 20
612345.9928
 30
1065.1558
 41
3.0
 42
3.0
 43
3.0
1001
FINISH
1000
$PROJECTPATH\CROWDERS RIDGE ROAD.crd
1000
TS109
1000
NLS
1001
PNTNO
1000
TS109
1070
     1
1000

1070
     0
1001
PT_HANDLE
1000
2ED15
1000
2ED14
  0
ATTRIB
  5
129
330
128
100
AcDbEntity
  8
PNTNO
100
AcDbText
 10
1203838.036638451
 20
612339.7579735597
 30
0.0
 40
3.0
  1
TS109
  7
PTXT
100
AcDbAttribute
  2
PT#
 70
     0
280
     0
  0
ATTRIB
  5
12A
330
128
100
AcDbEntity
  8
PNTELEV
100
AcDbText
 10
1203847.793800004
 20
612344.4927999986
 30
0.0
 40
3.0
  1
1065.16
  7
PTXT
100
AcDbAttribute
  2
ELEV2
 70
     0
280
     0
  0
ATTRIB
  5
12B
330
128
100
AcDbEntity
  8
PNTDESC
100
AcDbText
 10
1203847.793800004
 20
612340.7428000038
 30
0.0
 40
3.0
  1
NLS
  7
PTXT
100
AcDbAttribute
  2
DESC2
 70
     0
280
     0
  0
SEQEND
  5
12C
330
128
100
AcDbEntity
  8
S-BNDRY-MONUMENTS
  0
INSERT
  5
12D
330
19
100
AcDbEntity
  8
S-BNDRY-MONUMENTS
100
AcDbBlockReference
 66
     1
  2
SRVPNO2
 10
1203845.746
 20
612352.5245
 30
1065.5729
 41
3.0
 42
3.0
 43
3.0
1001
FINISH
1000
$PROJECTPATH\CROWDERS RIDGE ROAD.crd
1000
TS110
1000
NLS
1001
PNTNO
1000
TS110
1070
     1
1000

1070
     0
1001
PT_HANDLE
1000
2ED1D
1000
2ED1C
  0
ATTRIB
  5
12E
330
12D
100
AcDbEntity
  8
PNTNO
100
AcDbText
 10
1203850.246000004
 20
612354.7745000022
 30
0.0
 40
3.0
  1
TS110
  7
PTXT
100
AcDbAttribute
  2
PT#
 70
     0
280
     0
  0
ATTRIB
  5
12F
330
12D
100
AcDbEntity
  8
PNTELEV
100
AcDbText
 10
1203850.246000004
 20
612351.0244999987
 30
0.0
 40
3.0
  1
1065.57
  7
PTXT
100
AcDbAttribute
  2
ELEV2
 70
     0
280
     0
  0
ATTRIB
  5
130
330
12D
100
AcDbEntity
  8
PNTDESC
100
AcDbText
 10
1203850.246000004
 20
612347.2745000039
 30
0.0
 40
3.0
  1
NLS
  7
PTXT
100
AcDbAttribute
  2
DESC2
 70
     0
280
     0
  0
SEQEND
  5
131
330
12D
100
AcDbEntity
  8
S-BNDRY-MONUMENTS
  0
LWPOLYLINE
  5
132
330
19
100
AcDbEntity
  8
S-ROADS-GRAVEL
100
AcDbPolyline
 90
        4
 70
     0
 43
0.0
 10
1203734.574
 20
612020.4600000001
 10
1203750.455
 20
612025.6230000001
 10
1203765.948
 20
612039.5570000001
 10
1203780.158
 20
612064.0760000001
  0
LWPOLYLINE
  5
133
330
19
100
AcDbEntity
  8
S-ROADS-GRAVEL
100
AcDbPolyline
 90
       11
 70
     0
 43
0.0
 10
1203793.280679436
 20
612168.5970400684
 10
1203813.191592797
 20
612174.4246244667
 10
1203831.807487403
 20
612181.3853502759
 10
1203862.11702681
 20
612199.4438158397
 10
1203869.831494004
 20
612201.7834493329
 10
1203885.715708423
 20
612206.045376291
 10
1203892.393148879
 20
612206.9559363532
 10
1203922.745150954
 20
612220.7155106273
 10
1203918.757656682
 20
612228.8789345186
 10
1203942.849558329
 20
612265.3013370085
 10
1203937.285024615
 20
612268.9688705925
  0
POLYLINE
  5
134
330
19
100
AcDbEntity
  8
S-BLDG-LINE
100
AcDb2dPolyline
 66
     1
 10
0.0
 20
0.0
 30
0.0
 70
     1
  0
VERTEX
  5
135
330
134
100
AcDbEntity
  8
S-BLDG-LINE
100
AcDbVertex
100
AcDb2dVertex
 10
1203932.0981
 20
612269.4307
 30
0.0
  0
VERTEX
  5
136
330
134
100
AcDbEntity
  8
S-BLDG-LINE
100
AcDbVertex
100
AcDb2dVertex
 10
1203912.004017736
 20
612239.6446822813
 30
0.0
  0
VERTEX
  5
137
330
134
100
AcDbEntity
  8
S-BLDG-LINE
100
AcDbVertex
100
AcDb2dVertex
 10
1203887.3347
 20
612256.2468
 30
0.0
  0
VERTEX
  5
138
330
134
100
AcDbEntity
  8
S-BLDG-LINE
100
AcDbVertex
100
AcDb2dVertex
 10
1203907.428782264
 20
612286.0328177187
 30
0.0
  0
SEQEND
  5
139
330
134
100
AcDbEntity
  8
S-BLDG-LINE
  0
LWPOLYLINE
  5
13A
330
19
100
AcDbEntity
  8
S-FENCE-FENCELINE
100
AcDbPolyline
 90
        3
 70
     0
 43
0.0
 10
1203811.2073
 20
612084.6884
 10
1203888.5145
 20
612199.3836
 10
1203934.814
 20
612220.0765
  0
LWPOLYLINE
  5
13B
330
19
100
AcDbEntity
  8
S-ROADS-GRAVEL
100
AcDbPolyline
 90
        9
 70
     0
 43
0.0
 10
1203830.7547
 20
612280.8926
 10
1203831.658318477
 20
612290.0500749504
 10
1203865.883362483
 20
612286.9674497397
 10
1203864.61869573
 20
612261.3184271529
 10
1203866.752820876
 20
612258.4729269585
 10
1203872.119750409
 20
612258.2516102768
 10
1203879.884804274
 20
612262.0582572038
 10
1203900.321819004
 20
612292.6126059592
 10
1203937.285024615
 20
612268.9688705925
  0
INSERT
  5
13C
330
19
100
AcDbEntity
  8
S-BLDG-LINE
100
AcDbBlockReference
 66
     1
  2
SRVPNO5
 10
1203932.0981
 20
612269.4307
 30
1066.2259
 41
3.0
 42
3.0
 43
3.0
 50
9.66628413629744
1001
FINISH
1000
$PROJECTPATH\CROWDERS RIDGE ROAD.crd
1000
TS35
1000
BL
1001
PNTNO
1000
TS35
1070
     1
1000

1070
     0
1001
PT_HANDLE
1000
2ECDD
1000
2ECDC
  0
ATTRIB
  5
13D
330
13C
100
AcDbEntity
  8
PNTNO
100
AcDbText
 10
1203917.446249061
 20
612264.4193388751
 30
0.0
 40
3.0
  1
TS35
 50
14.03624346677331
 51
14.99999999999997
  7
PTXT
100
AcDbAttribute
  2
PT#
 70
     0
280
     0
  0
ATTRIB
  5
13E
330
13C
100
AcDbEntity
  8
PNTELEV
100
AcDbText
 10
1203936.786074975
 20
612268.7075882262
 30
0.0
 40
3.0
  1

 50
9.666284136297401
 51
14.99999999999997
  7
PTXT
100
AcDbAttribute
  2
ELEV2
 70
     0
280
     0
  0
ATTRIB
  5
13F
330
13C
100
AcDbEntity
  8
PNTDESC
100
AcDbText
 10
1203937.415734891
 20
612265.0108290518
 30
0.0
 40
3.0
  1
BL
 50
9.666284136297401
 51
14.99999999999997
  7
PTXT
100
AcDbAttribute
  2
DESC2
 70
     0
280
     0
  0
SEQEND
  5
140
330
13C
100
AcDbEntity
  8
S-BLDG-LINE
  0
LWPOLYLINE
  5
141
330
19
100
AcDbEntity
  8
S-ROADS-GRAVEL
100
AcDbPolyline
 90
        2
 70
     0
 43
0.0
 10
1203713.635
 20
612224.783
 10
1203727.473
 20
612210.3619999998
  0
LWPOLYLINE
  5
142
330
19
100
AcDbEntity
  8
S-BLDG-LINE
100
AcDbPolyline
 90
        2
 70
     0
 43
0.0
 10
1203646.046794588
 20
612278.0396362128
 10
1203651.637632623
 20
612286.330747723
  0
POLYLINE
  5
143
330
19
100
AcDbEntity
  8
S-BLDG-LINE
100
AcDb2dPolyline
 66
     1
 10
0.0
 20
0.0
 30
0.0
 70
     1
  0
VERTEX
  5
144
330
143
100
AcDbEntity
  8
S-BLDG-LINE
100
AcDbVertex
100
AcDb2dVertex
 10
1203830.7547
 20
612280.8926
 30
0.0
  0
VERTEX
  5
145
330
143
100
AcDbEntity
  8
S-BLDG-LINE
100
AcDbVertex
100
AcDb2dVertex
 10
1203829.366
 20
612268.9842
 30
0.0
  0
VERTEX
  5
146
330
143
100
AcDbEntity
  8
S-BLDG-LINE
100
AcDbVertex
100
AcDb2dVertex
 10
1203853.4217
 20
612266.0833
 30
0.0
  0
VERTEX
  5
147
330
143
100
AcDbEntity
  8
S-BLDG-LINE
100
AcDbVertex
100
AcDb2dVertex
 10
1203854.8104
 20
612277.9917000001
 30
0.0
  0
SEQEND
  5
148
330
143
100
AcDbEntity
  8
S-BLDG-LINE
  0
LWPOLYLINE
  5
149
330
19
100
AcDbEntity
  8
S-BLDG-LINE
100
AcDbPolyline
 90
        4
 70
     0
 43
0.0
 10
1203853.4217
 20
612266.0833
 10
1203851.9625
 20
612255.7814
 10
1203828.1614
 20
612258.5815
 10
1203829.366
 20
612268.9842
  0
LWPOLYLINE
  5
14A
330
19
100
AcDbEntity
  8
S-ROADS-GRAVEL
100
AcDbPolyline
 90
       13
 70
     0
 43
0.0
 10
1203748.296860945
 20
612217.4532964148
 10
1203756.390728165
 20
612207.0830290391
 10
1203766.261610257
 20
612195.2286815515
 10
1203770.956053244
 20
612191.1817479415
 10
1203780.183061875
 20
612188.7535877755
 10
1203793.942636149
 20
612187.4585690203
 10
1203803.341639458
 20
612188.0554917278
 10
1203813.155453462
 20
612191.2930386158
 10
1203821.451667363
 20
612201.10685262
 10
1203826.125049966
 20
612208.5595549052
 10
1203823.171614147
 20
612213.4500001305
 10
1203825.498600973
 20
612236.0116550062
 10
1203828.1614
 20
612258.5815
  0
INSERT
  5
14B
330
19
100
AcDbEntity
  8
S-BLDG-LINE
100
AcDbBlockReference
 66
     1
  2
SRVPNO5
 10
1203887.3347
 20
612256.2468
 30
1066.1925
 41
3.0
 42
3.0
 43
3.0
 50
12.69335062038507
1001
FINISH
1000
$PROJECTPATH\CROWDERS RIDGE ROAD.crd
1000
TS25
1000
BL
1001
PNTNO
1000
TS25
1070
     1
1000

1070
     0
1001
PT_HANDLE
1000
2ECA5
1000
2ECA4
  0
ATTRIB
  5
14C
330
14B
100
AcDbEntity
  8
PNTNO
100
AcDbText
 10
1203891.09957621
 20
612254.8444130431
 30
0.0
 40
3.0
  1
TS25
 50
18.43494882271782
 51
15.00000000000002
  7
PTXT
100
AcDbAttribute
  2
PT#
 70
     0
280
     0
  0
ATTRIB
  5
14D
330
14B
100
AcDbEntity
  8
PNTELEV
100
AcDbText
 10
1203892.054319711
 20
612255.7722583703
 30
0.0
 40
3.0
  1

 50
12.69335062038507
 51
15.00000000000002
  7
PTXT
100
AcDbAttribute
  2
ELEV2
 70
     0
280
     0
  0
ATTRIB
  5
14E
330
14B
100
AcDbEntity
  8
PNTDESC
100
AcDbText
 10
1203892.878318419
 20
612252.1139081776
 30
0.0
 40
3.0
  1
BL
 50
12.69335062038507
 51
15.00000000000002
  7
PTXT
100
AcDbAttribute
  2
DESC2
 70
     0
280
     0
  0
SEQEND
  5
14F
330
14B
100
AcDbEntity
  8
S-BLDG-LINE
  0
INSERT
  5
150
330
19
100
AcDbEntity
  8
S-BLDG-LINE
100
AcDbBlockReference
 66
     1
  2
SRVPNO5
 10
1203911.9514
 20
612239.6407
 30
1066.2308
 41
3.0
 42
3.0
 43
3.0
 50
333.0672001655245
1001
FINISH
1000
$PROJECTPATH\CROWDERS RIDGE ROAD.crd
1000
TS26
1000
BL
1001
PNTNO
1000
TS26
1070
     1
1000

1070
     0
1001
PT_HANDLE
1000
2ECAD
1000
2ECAC
  0
ATTRIB
  5
151
330
150
100
AcDbEntity
  8
PNTNO
100
AcDbText
 10
1203901.17612117
 20
612240.0581387406
 30
0.0
 40
3.0
  1
TS26
 50
332.4801075691886
 51
15.00000000000002
  7
PTXT
100
AcDbAttribute
  2
PT#
 70
     0
280
     0
  0
ATTRIB
  5
152
330
150
100
AcDbEntity
  8
PNTELEV
100
AcDbText
 10
1203915.283904975
 20
612236.2651392178
 30
0.0
 40
3.0
  1

 50
333.0672001655245
 51
15.00000000000002
  7
PTXT
100
AcDbAttribute
  2
ELEV2
 70
     0
280
     0
  0
ATTRIB
  5
153
330
150
100
AcDbEntity
  8
PNTDESC
100
AcDbText
 10
1203913.585360633
 20
612232.9218702904
 30
0.0
 40
3.0
  1
BL
 50
333.0672001655245
 51
15.00000000000002
  7
PTXT
100
AcDbAttribute
  2
DESC2
 70
     0
280
     0
  0
SEQEND
  5
154
330
150
100
AcDbEntity
  8
S-BLDG-LINE
  0
INSERT
  5
155
330
19
100
AcDbEntity
  8
S-BLDG-LINE
100
AcDbBlockReference
 66
     1
  2
SRVPNO5
 10
1203830.7547
 20
612280.8926
 30
1067.2254
 41
3.0
 42
3.0
 43
3.0
 50
28.2078432436819
1001
FINISH
1000
$PROJECTPATH\CROWDERS RIDGE ROAD.crd
1000
TS30
1000
BL
1001
PNTNO
1000
TS30
1070
     1
1000

1070
     0
1001
PT_HANDLE
1000
2ECB5
1000
2ECB4
  0
ATTRIB
  5
156
330
155
100
AcDbEntity
  8
PNTNO
100
AcDbText
 10
1203819.096753947
 20
612282.955822991
 30
0.0
 40
3.0
  1
TS30
 50
356.4236656247585
 51
14.99999999999997
  7
PTXT
100
AcDbAttribute
  2
PT#
 70
     0
280
     0
  0
ATTRIB
  5
157
330
155
100
AcDbEntity
  8
PNTELEV
100
AcDbText
 10
1203835.429281503
 20
612281.6977631774
 30
0.0
 40
3.0
  1

 50
28.20784324368189
 51
14.99999999999997
  7
PTXT
100
AcDbAttribute
  2
ELEV2
 70
     0
280
     0
  0
ATTRIB
  5
158
330
155
100
AcDbEntity
  8
PNTDESC
100
AcDbText
 10
1203837.201799263
 20
612278.3931178398
 30
0.0
 40
3.0
  1
BL
 50
28.20784324368189
 51
14.99999999999997
  7
PTXT
100
AcDbAttribute
  2
DESC2
 70
     0
280
     0
  0
SEQEND
  5
159
330
155
100
AcDbEntity
  8
S-BLDG-LINE
  0
INSERT
  5
15A
330
19
100
AcDbEntity
  8
S-BLDG-LINE
100
AcDbBlockReference
 66
     1
  2
SRVPNO5
 10
1203829.366
 20
612268.9842
 30
1067.2463
 41
3.0
 42
3.0
 43
3.0
 50
308.2361681459157
1001
FINISH
1000
$PROJECTPATH\CROWDERS RIDGE ROAD.crd
1000
TS31
1000
BL
1001
PNTNO
1000
TS31
1070
     1
1000

1070
     0
1001
PT_HANDLE
1000
2ECBD
1000
2ECBC
  0
ATTRIB
  5
15B
330
15A
100
AcDbEntity
  8
PNTNO
100
AcDbText
 10
1203829.588378832
 20
612269.4846858131
 30
0.0
 40
3.0
  1
TS31
 51
15.00000000000002
  7
PTXT
100
AcDbAttribute
  2
PT#
 70
     0
280
     0
  0
ATTRIB
  5
15C
330
15A
100
AcDbEntity
  8
PNTELEV
100
AcDbText
 10
1203830.972870014
 20
612264.5212448401
 30
0.0
 40
3.0
  1

 50
308.2361681459157
 51
15.00000000000002
  7
PTXT
100
AcDbAttribute
  2
ELEV2
 70
     0
280
     0
  0
ATTRIB
  5
15D
330
15A
100
AcDbEntity
  8
PNTDESC
100
AcDbText
 10
1203828.02737115
 20
612262.2003535404
 30
0.0
 40
3.0
  1
BL
 50
308.2361681459157
 51
15.00000000000002
  7
PTXT
100
AcDbAttribute
  2
DESC2
 70
     0
280
     0
  0
SEQEND
  5
15E
330
15A
100
AcDbEntity
  8
S-BLDG-LINE
  0
INSERT
  5
15F
330
19
100
AcDbEntity
  8
S-BLDG-LINE
100
AcDbBlockReference
 66
     1
  2
SRVPNO5
 10
1203853.4217
 20
612266.0833
 30
1067.2982
 41
3.0
 42
3.0
 43
3.0
 50
274.8321041600034
1001
FINISH
1000
$PROJECTPATH\CROWDERS RIDGE ROAD.crd
1000
TS32
1000
BL
1001
PNTNO
1000
TS32
1070
     1
1000

1070
     0
1001
PT_HANDLE
1000
2ECC5
1000
2ECC4
  0
ATTRIB
  5
160
330
15F
100
AcDbEntity
  8
PNTNO
100
AcDbText
 10
1203853.724999459
 20
612264.3840943149
 30
0.0
 40
3.0
  1
TS32
 50
355.9143832206619
 51
14.99999999999997
  7
PTXT
100
AcDbAttribute
  2
PT#
 70
     0
280
     0
  0
ATTRIB
  5
161
330
15F
100
AcDbEntity
  8
PNTELEV
100
AcDbText
 10
1203852.30609412
 20
612261.4729395455
 30
0.0
 40
3.0
  1

 50
274.8321041600034
 51
14.99999999999997
  7
PTXT
100
AcDbAttribute
  2
ELEV2
 70
     0
280
     0
  0
ATTRIB
  5
162
330
15F
100
AcDbEntity
  8
PNTDESC
100
AcDbText
 10
1203848.56942231
 20
612261.1570538376
 30
0.0
 40
3.0
  1
BL
 50
274.8321041600034
 51
14.99999999999997
  7
PTXT
100
AcDbAttribute
  2
DESC2
 70
     0
280
     0
  0
SEQEND
  5
163
330
15F
100
AcDbEntity
  8
S-BLDG-LINE
  0
INSERT
  5
164
330
19
100
AcDbEntity
  8
S-BLDG-LINE
100
AcDbBlockReference
 66
     1
  2
SRVPNO5
 10
1203828.1614
 20
612258.5815
 30
1066.103
 41
3.0
 42
3.0
 43
3.0
 50
274.9152956898082
1001
FINISH
1000
$PROJECTPATH\CROWDERS RIDGE ROAD.crd
1000
TS33
1000
BL
1001
PNTNO
1000
TS33
1070
     1
1000

1070
     0
1001
PT_HANDLE
1000
2ECCD
1000
2ECCC
  0
ATTRIB
  5
165
330
164
100
AcDbEntity
  8
PNTNO
100
AcDbText
 10
1203829.167492293
 20
612258.9981704269
 30
0.0
 40
3.0
  1
TS33
 50
13.70696100450249
 51
15.00000000000002
  7
PTXT
100
AcDbAttribute
  2
PT#
 70
     0
280
     0
  0
ATTRIB
  5
166
330
164
100
AcDbEntity
  8
PNTELEV
100
AcDbText
 10
1203827.052489382
 20
612253.9695245832
 30
0.0
 40
3.0
  1

 50
274.9152956898082
 51
15.00000000000002
  7
PTXT
100
AcDbAttribute
  2
ELEV2
 70
     0
280
     0
  0
ATTRIB
  5
167
330
164
100
AcDbEntity
  8
PNTDESC
100
AcDbText
 10
1203823.316280169
 20
612253.6482136919
 30
0.0
 40
3.0
  1
BL
 50
274.9152956898082
 51
15.00000000000002
  7
PTXT
100
AcDbAttribute
  2
DESC2
 70
     0
280
     0
  0
SEQEND
  5
168
330
164
100
AcDbEntity
  8
S-BLDG-LINE
  0
INSERT
  5
169
330
19
100
AcDbEntity
  8
S-BLDG-LINE
100
AcDbBlockReference
 66
     1
  2
SRVPNO5
 10
1203851.9625
 20
612255.7814
 30
1066.4258
 41
3.0
 42
3.0
 43
3.0
 50
1.478258583232086
1001
FINISH
1000
$PROJECTPATH\CROWDERS RIDGE ROAD.crd
1000
TS34
1000
BL
1001
PNTNO
1000
TS34
1070
     1
1000

1070
     0
1001
PT_HANDLE
1000
2ECD5
1000
2ECD4
  0
ATTRIB
  5
16A
330
169
100
AcDbEntity
  8
PNTNO
100
AcDbText
 10
1203852.107648801
 20
612251.6059239168
 30
0.0
 40
3.0
  1
TS34
 50
359.4270613018142
 51
15.00000000000002
  7
PTXT
100
AcDbAttribute
  2
PT#
 70
     0
280
     0
  0
ATTRIB
  5
16B
330
169
100
AcDbEntity
  8
PNTELEV
100
AcDbText
 10
1203856.499698765
 20
612254.3979884963
 30
0.0
 40
3.0
  1

 50
1.478258583232086
 51
15.00000000000002
  7
PTXT
100
AcDbAttribute
  2
ELEV2
 70
     0
280
     0
  0
ATTRIB
  5
16C
330
169
100
AcDbEntity
  8
PNTDESC
100
AcDbText
 10
1203857.925535686
 20
612253.4137559367
 30
0.0
 40
3.0
  1
BL
 50
1.478258583232086
 51
15.00000000000002
  7
PTXT
100
AcDbAttribute
  2
DESC2
 70
     0
280
     0
  0
SEQEND
  5
16D
330
169
100
AcDbEntity
  8
S-BLDG-LINE
  0
INSERT
  5
16E
330
19
100
AcDbEntity
  8
S-BNDRY-MONUMENTS
100
AcDbBlockReference
 66
     1
  2
SRVPNO2
 10
1203828.2504
 20
612257.3899
 30
1066.465
 41
3.0
 42
3.0
 43
3.0
1001
FINISH
1000
$PROJECTPATH\CROWDERS RIDGE ROAD.crd
1000
TS113
1000
NLS
1001
PNTNO
1000
TS113
1070
     1
1000

1070
     0
1001
PT_HANDLE
1000
2ED35
1000
2ED34
  0
ATTRIB
  5
16F
330
16E
100
AcDbEntity
  8
PNTNO
100
AcDbText
 10
1203814.249385656
 20
612253.8450420595
 30
0.0
 40
3.0
  1
TS113
  7
PTXT
100
AcDbAttribute
  2
PT#
 70
     0
280
     0
  0
ATTRIB
  5
170
330
16E
100
AcDbEntity
  8
PNTELEV
100
AcDbText
 10
1203832.750400004
 20
612255.8898999986
 30
0.0
 40
3.0
  1
1066.46
  7
PTXT
100
AcDbAttribute
  2
ELEV2
 70
     0
280
     0
  0
ATTRIB
  5
171
330
16E
100
AcDbEntity
  8
PNTDESC
100
AcDbText
 10
1203832.750400004
 20
612252.1399000038
 30
0.0
 40
3.0
  1
NLS
  7
PTXT
100
AcDbAttribute
  2
DESC2
 70
     0
280
     0
  0
SEQEND
  5
172
330
16E
100
AcDbEntity
  8
S-BNDRY-MONUMENTS
  0
INSERT
  5
173
330
19
100
AcDbEntity
  8
S-BNDRY-MONUMENTS
100
AcDbBlockReference
 66
     1
  2
SRVPNO2
 10
1203822.803
 20
612269.625
 30
1065.722
 41
3.0
 42
3.0
 43
3.0
1001
FINISH
1000
$PROJECTPATH\CROWDERS RIDGE ROAD.crd
1000
TS1
1000
RS
1001
PNTNO
1000
TS1
1070
     1
1000

1070
     1
1001
PT_HANDLE
1000
2ED75
1000
2ED74
  0
ATTRIB
  5
174
330
173
100
AcDbEntity
  8
PNTNO
100
AcDbText
 10
1203814.596843595
 20
612272.6724575154
 30
0.0
 40
3.0
  1
TS1
  7
PTXT
100
AcDbAttribute
  2
PT#
 70
     0
280
     0
  0
ATTRIB
  5
175
330
173
100
AcDbEntity
  8
PNTELEV
100
AcDbText
 10
1203827.303000001
 20
612268.1250000003
 30
0.0
 40
3.0
  1
1065.72
  7
PTXT
100
AcDbAttribute
  2
ELEV2
 70
     0
280
     0
  0
ATTRIB
  5
176
330
173
100
AcDbEntity
  8
PNTDESC
100
AcDbText
 10
1203827.303000001
 20
612264.3750000003
 30
0.0
 40
3.0
  1
RS
  7
PTXT
100
AcDbAttribute
  2
DESC2
 70
     0
280
     0
  0
SEQEND
  5
177
330
173
100
AcDbEntity
  8
S-BNDRY-MONUMENTS
  0
INSERT
  5
178
330
19
100
AcDbEntity
  8
S-FENCE-FENCELINE
100
AcDbBlockReference
 66
     1
  2
SRVPNO1
 10
1203934.814
 20
612220.0765
 30
1065.2287
 41
3.0
 42
3.0
 43
3.0
 50
12.39736607584924
1001
FINISH
1000
$PROJECTPATH\CROWDERS RIDGE ROAD.crd
1000
TS27
1000
FL
1001
PNTNO
1000
TS27
1070
     1
1000

1070
     0
1001
PT_HANDLE
1000
2ECF5
1000
2ECF4
  0
ATTRIB
  5
179
330
178
100
AcDbEntity
  8
PNTNO
100
AcDbText
 10
1203928.959194717
 20
612221.0932374774
 30
0.0
 40
3.0
  1
TS27
 50
12.39736607584927
  7
PTXT
 72
     1
 11
1203934.330946536
 21
612222.274034835
 31
0.0
100
AcDbAttribute
  2
PT#
 70
     0
280
     0
  0
ATTRIB
  5
17A
330
178
100
AcDbEntity
  8
PNTELEV
100
AcDbText
 10
1203939.531105313
 20
612219.577583706
 30
0.0
 40
3.0
  1
1065.23
 50
12.39736607584927
  7
PTXT
100
AcDbAttribute
  2
ELEV2
 70
     0
280
     0
  0
ATTRIB
  5
17B
330
178
100
AcDbEntity
  8
PNTDESC
100
AcDbText
 10
1203933.499419379
 20
612214.4121926468
 30
0.0
 40
3.0
  1
FL
 50
12.39736607584927
  7
PTXT
 72
     1
 11
1203935.941124751
 21
612214.9489187185
 31
0.0
100
AcDbAttribute
  2
DESC2
 70
     0
280
     0
  0
SEQEND
  5
17C
330
178
100
AcDbEntity
  8
S-FENCE-FENCELINE
  0
LWPOLYLINE
  5
17D
330
19
100
AcDbEntity
  8
S-BLDG-LINE
100
AcDbPolyline
 90
        2
 70
     0
 43
0.0
 10
1203618.473186583
 20
612308.6940998613
 10
1203612.882348549
 20
612300.4029883511
  0
LWPOLYLINE
  5
17E
330
19
100
AcDbEntity
  8
S-ROADS-GRAVEL
100
AcDbPolyline
 90
        5
 70
     0
 43
0.0
 10
1203600.01
 20
612109.7659999998
 10
1203618.024406984
 20
612132.9628789871
 10
1203636.558
 20
612152.756
 10
1203660.337
 20
612173.6509999998
 10
1203675.061
 20
612186.278
  0
LWPOLYLINE
  5
17F
330
19
100
AcDbEntity
  8
S-ROADS-GRAVEL
100
AcDbPolyline
 90
        5
 70
     0
 43
0.0
 10
1203590.463
 20
612116.0779999997
 10
1203611.707
 20
612139.6519999998
 10
1203630.259
 20
612157.3099999999
 10
1203654.75
 20
612180.9019999998
 10
1203665.924449416
 20
612191.6996061896
  0
LWPOLYLINE
  5
180
330
19
100
AcDbEntity
  8
S-FENCE-FENCELINE
100
AcDbPolyline
 90
        4
 70
     0
 43
0.0
 10
1204096.6459
 20
612166.6977
 10
1204079.6222
 20
612159.1756
 10
1203961.602925036
 20
612154.8619682316
 10
1203934.814
 20
612220.0765
  0
INSERT
  5
181
330
19
100
AcDbEntity
  8
S-BNDRY-MONUMENTS
100
AcDbBlockReference
 66
     1
  2
SRVPNO2
 10
1204085.5816
 20
612166.2225
 30
1060.6889
 41
3.0
 42
3.0
 43
3.0
1001
FINISH
1000
$PROJECTPATH\CROWDERS RIDGE ROAD.crd
1000
TS108
1000
NLS
1001
PNTNO
1000
TS108
1070
     1
1000

1070
     0
1001
PT_HANDLE
1000
2ED0D
1000
2ED0C
  0
ATTRIB
  5
182
330
181
100
AcDbEntity
  8
PNTNO
100
AcDbText
 10
1204086.374980158
 20
612168.9766879514
 30
0.0
 40
3.0
  1
TS108
 50
111.1460941789885
  7
PTXT
100
AcDbAttribute
  2
PT#
 70
     0
280
     0
  0
ATTRIB
  5
183
330
181
100
AcDbEntity
  8
PNTELEV
100
AcDbText
 10
1204090.081600004
 20
612164.7224999986
 30
0.0
 40
3.0
  1
1060.69
  7
PTXT
100
AcDbAttribute
  2
ELEV2
 70
     0
280
     0
  0
ATTRIB
  5
184
330
181
100
AcDbEntity
  8
PNTDESC
100
AcDbText
 10
1204090.081600004
 20
612160.9725000039
 30
0.0
 40
3.0
  1
NLS
  7
PTXT
100
AcDbAttribute
  2
DESC2
 70
     0
280
     0
  0
SEQEND
  5
185
330
181
100
AcDbEntity
  8
S-BNDRY-MONUMENTS
  0
INSERT
  5
186
330
19
100
AcDbEntity
  8
S-FENCE-POST
100
AcDbBlockReference
 66
     1
  2
SRVPNO1
 10
1204096.9464
 20
612166.6816
 30
1065.8261
 41
3.0
 42
3.0
 43
3.0
1001
FINISH
1000
$PROJECTPATH\CROWDERS RIDGE ROAD.crd
1000
TS107
1000
POST
1001
PNTNO
1000
TS107
1070
     1
1000

1070
     1
1001
PT_HANDLE
1000
2ED3D
1000
2ED3C
  0
ATTRIB
  5
187
330
186
100
AcDbEntity
  8
PNTNO
100
AcDbText
 10
1204098.412297481
 20
612165.5528915308
 30
0.0
 40
3.0
  1
TS107
 50
11.23444400712633
  7
PTXT
 72
     1
 11
1204104.542536305
 21
612166.7705417082
 31
0.0
100
AcDbAttribute
  2
PT#
 70
     0
280
     0
  0
ATTRIB
  5
188
330
186
100
AcDbEntity
  8
PNTELEV
100
AcDbText
 10
1204101.446400001
 20
612165.1816000004
 30
0.0
 40
3.0
  1

  7
PTXT
100
AcDbAttribute
  2
ELEV2
 70
     0
280
     0
  0
ATTRIB
  5
189
330
186
100
AcDbEntity
  8
PNTDESC
100
AcDbText
 10
1204091.4464
 20
612161.4316000004
 30
0.0
 40
3.0
  1
POST
  7
PTXT
 72
     1
 11
1204096.9464
 21
612161.4316000004
 31
0.0
100
AcDbAttribute
  2
DESC2
 70
     0
280
     0
  0
SEQEND
  5
18A
330
186
100
AcDbEntity
  8
S-FENCE-POST
  0
INSERT
  5
18B
330
19
100
AcDbEntity
  8
S-BNDRY-MONUMENTS
100
AcDbBlockReference
 66
     1
  2
SRVPNO2
 10
1204073.2463
 20
612165.4499
 30
1061.6426
 41
3.0
 42
3.0
 43
3.0
1001
FINISH
1000
$PROJECTPATH\CROWDERS RIDGE ROAD.crd
1000
TS106
1000
RF
1001
PNTNO
1000
TS106
1070
     1
1000

1070
     1
1001
PT_HANDLE
1000
2ED65
1000
2ED64
  0
ATTRIB
  5
18C
330
18B
100
AcDbEntity
  8
PNTNO
100
AcDbText
 10
1204064.336144423
 20
612161.0766138579
 30
0.0
 40
3.0
  1
TS106
 50
36.82084305162482
  7
PTXT
100
AcDbAttribute
  2
PT#
 70
     0
280
     0
  0
ATTRIB
  5
18D
330
18B
100
AcDbEntity
  8
PNTELEV
100
AcDbText
 10
1204077.746300001
 20
612163.9499000004
 30
0.0
 40
3.0
  1
1061.64
  7
PTXT
100
AcDbAttribute
  2
ELEV2
 70
     0
280
     0
  0
ATTRIB
  5
18E
330
18B
100
AcDbEntity
  8
PNTDESC
100
AcDbText
 10
1204077.746300001
 20
612160.1999000004
 30
0.0
 40
3.0
  1
RF
  7
PTXT
100
AcDbAttribute
  2
DESC2
 70
     0
280
     0
  0
SEQEND
  5
18F
330
18B
100
AcDbEntity
  8
S-BNDRY-MONUMENTS
  0
LINE
  5
190
330
19
100
AcDbEntity
  8
S-BLDG-LINE
100
AcDbLine
 10
1203618.473186583
 20
612308.6940998614
 30
0.0
 11
1203651.637632623
 21
612286.330747723
 31
0.0
  0
LWPOLYLINE
  5
191
330
19
100
AcDbEntity
  8
S-ROADS-GRAVEL
100
AcDbPolyline
 90
        3
 70
     0
 43
0.0
 10
1203401.67745253
 20
612259.018592723
 10
1203398.326085634
 20
612252.5055589443
 10
1203398.722092069
 20
612245.7668668823
  0
LWPOLYLINE
  5
192
330
19
100
AcDbEntity
  8
S-ROADS-ASPHALT
100
AcDbPolyline
 90
        3
 70
     0
 43
0.0
 10
1203195.416
 20
612362.575
 10
1203243.306
 20
612330.069
 10
1203273.206
 20
612309.805
  0
LWPOLYLINE
  5
195
330
19
100
AcDbEntity
  8
S-ROADS-ASPHALT
100
AcDbPolyline
 90
        6
 70
     0
 43
0.0
 10
1203292.368097369
 20
612396.6819091163
 10
1203265.527
 20
612382.924
 10
1203245.177
 20
612376.064
 42
-0.0860374040137026
 10
1203231.066
 20
612373.881
 10
1203216.333
 20
612374.627
 10
1203205.786
 20
612377.449
  0
LWPOLYLINE
  5
196
330
19
100
AcDbEntity
  8
S-BNDRY-BOUNDARY LINE
100
AcDbPolyline
 90
       14
 70
     1
 43
1.0
 38
1059.007
 10
1203889.46177842
 20
612198.4747949385
 10
1203768.951
 20
612020.608
 10
1203752.123606145
 20
611995.7717600266
 10
1203611.045484348
 20
612091.3569662576
 10
1203444.77513647
 20
612204.0107589897
 10
1203258.279810508
 20
612330.3676594512
 10
1203244.964877677
 20
612339.3844411393
 10
1203513.884234917
 20
612479.9699375511
 10
1204313.851658069
 20
612416.2645853689
 10
1204294.398702535
 20
612239.9544979633
 10
1204256.233273614
 20
612163.1819368744
 10
1203959.072784421
 20
612153.5219964394
 10
1203934.267218997
 20
612218.4822879637
 10
1203889.46177842
 20
612198.4747949385
  0
LWPOLYLINE
  5
197
330
19
100
AcDbEntity
  8
S-ROADS-ASPHALT
100
AcDbPolyline
 90
        2
 70
     0
 43
0.0
 10
1203273.206
 20
612309.805
 10
1203831.414258325
 20
611933.4040805493
  0
LWPOLYLINE
  5
198
330
19
100
AcDbEntity
  8
S-ROADS-ASPHALT
100
AcDbPolyline
 90
       11
 70
     0
 43
0.0
 10
1203298.380482642
 20
612382.3953673255
 10
1203283.955
 20
612372.174
 10
1203275.462
 20
612359.147
 42
0.2558664163209076
 10
1203277.014
 20
612328.835
 10
1203285.022
 20
612322.818
 10
1203365.885
 20
612267.722
 10
1203381.823
 20
612257.197
 10
1203590.463
 20
612116.0779999997
 10
1203600.01
 20
612109.7659999998
 10
1203769.71
 20
611996.673
 10
1203838.938081785
 20
611950.7637894372
  0
LWPOLYLINE
  5
199
330
19
100
AcDbEntity
  8
S-ROADS-RW
100
AcDbPolyline
 90
       10
 70
     0
 43
0.0
 38
1059.007
 10
1203194.946283221
 20
612337.5761898113
 10
1203228.00240941
 20
612314.6396716471
 10
1203241.455316789
 20
612305.5294545369
 10
1203427.947742615
 20
612179.1745190162
 10
1203594.218090492
 20
612066.520726284
 10
1203735.296036203
 20
611970.935639357
 10
1203932.414566305
 20
611837.3770800252
 10
1203975.997889041
 20
611807.9955599749
 10
1204059.135492099
 20
611752.0055300464
 10
1204100.095887731
 20
611724.6830080021
  0
LWPOLYLINE
  5
19A
330
19
100
AcDbEntity
  8
S-ROADS-RW
100
AcDbPolyline
 90
       25
 70
     0
 43
0.0
 38
1059.007
 10
1203282.645124916
 20
612350.0967029205
 10
1203316.894071006
 20
612369.1251971803
 10
1203341.05498901
 20
612379.2045812608
 10
1203365.348970828
 20
612388.1266915301
 10
1203392.919172072
 20
612396.6213235682
 10
1203422.427739214
 20
612404.552370771
 10
1203458.989949073
 20
612413.5728571013
 10
1203496.480884362
 20
612421.0014630308
 10
1203525.023036492
 20
612425.7942538088
 10
1203554.286817198
 20
612429.0009964284
 10
1203644.168200398
 20
612426.5898261579
 10
1203668.340367896
 20
612424.7497611457
 10
1203702.845037037
 20
612422.8780058065
 10
1203747.725413483
 20
612421.9561255173
 10
1203788.185714234
 20
612420.0915426878
 10
1203833.847178249
 20
612418.5622524989
 10
1203878.20964771
 20
612416.9142005392
 10
1203938.070232053
 20
612415.4559432397
 10
1203980.306030124
 20
612415.1864256812
 10
1204037.73620318
 20
612414.6290569176
 10
1204082.234818137
 20
612413.5106778047
 10
1204128.213891007
 20
612412.3372058799
 10
1204173.672014211
 20
612410.8622089209
 10
1204218.729365519
 20
612408.632842856
 10
1204320.632945919
 20
612405.6641062119
  0
LWPOLYLINE
  5
19B
330
19
100
AcDbEntity
  8
S-ROADS-RW
100
AcDbPolyline
 90
       25
 70
     0
 43
0.0
 38
1059.007
 10
1203280.712057584
 20
612417.6613451556
 10
1203290.691575601
 20
612423.2059012069
 10
1203319.151970476
 20
612435.0789290025
 10
1203346.159695412
 20
612444.997677679
 10
1203376.293415294
 20
612454.2821533369
 10
1203407.453342946
 20
612462.6570383611
 10
1203445.966007427
 20
612472.1587332761
 10
1203485.679579447
 20
612480.0277414594
 10
1203516.780397267
 20
612485.250182716
 10
1203551.812035554
 20
612489.0889706247
 10
1203647.251668136
 20
612486.5286939964
 10
1203672.242945456
 20
612484.6262756463
 10
1203705.086770701
 20
612482.8446151699
 10
1203749.722895459
 20
612481.9277520138
 10
1203790.571065017
 20
612480.0452945392
 10
1203835.965102347
 20
612478.524960984
 10
1203880.054055436
 20
612476.8870700725
 10
1203938.992350437
 20
612475.4512805651
 10
1203980.78860628
 20
612475.1845678393
 10
1204038.781155168
 20
612474.6217411307
 10
1204083.753973952
 20
612473.4914439019
 10
1204129.952228033
 20
612472.3123780626
 10
1204176.127639698
 20
612470.8141069729
 10
1204221.085760627
 20
612468.5896506694
 10
1204322.380172634
 20
612465.6386608062
  0
LWPOLYLINE
  5
19C
330
19
100
AcDbEntity
  8
S-ROADS-GRAVEL
100
AcDbPolyline
 90
       25
 70
     0
 43
0.0
 38
1059.007
 10
1203298.380482642
 20
612382.3953673255
 10
1203308.66091049
 20
612389.5488729544
 10
1203332.893214336
 20
612401.0846985483
 10
1203357.673260662
 20
612410.8750859897
 10
1203386.268869361
 20
612419.6856554756
 10
1203416.437980707
 20
612427.7942378069
 10
1203453.780372415
 20
612437.0072075712
 10
1203492.160362396
 20
612444.6119744023
 10
1203521.725980802
 20
612449.5766253717
 10
1203553.29690454
 20
612453.036186107
 10
1203645.401587493
 20
612450.5653732935
 10
1203669.90139892
 20
612448.7003669459
 10
1203703.741730503
 20
612446.8646495519
 10
1203748.524406274
 20
612445.9447761158
 10
1203789.139854548
 20
612444.0730434285
 10
1203834.694347888
 20
612442.547335893
 10
1203878.947410801
 20
612440.9033483525
 10
1203938.439079407
 20
612439.4540781699
 10
1203980.499060587
 20
612439.1856825446
 10
1204038.154183975
 20
612438.6261306029
 10
1204082.842480463
 20
612437.5029842434
 10
1204128.909225818
 20
612436.3272747529
 10
1204174.654264406
 20
612434.8429681417
 10
1204219.671923563
 20
612432.6155659815
 10
1204321.331836606
 20
612429.6539280496
  0
LWPOLYLINE
  5
19D
330
19
100
AcDbEntity
  8
S-ROADS-GRAVEL
100
AcDbPolyline
 90
       25
 70
     0
 43
0.0
 38
1059.007
 10
1203292.368097369
 20
612396.6819091163
 10
1203301.172573764
 20
612401.5736195964
 10
1203327.913177891
 20
612412.7291899058
 10
1203353.835405579
 20
612422.2492832195
 10
1203382.943718006
 20
612431.2178214296
 10
1203413.443101454
 20
612439.4151713251
 10
1203451.175584086
 20
612448.7243828062
 10
1203490.000101413
 20
612456.4172300881
 10
1203520.077452957
 20
612461.4678111532
 10
1203552.801948212
 20
612465.0537809462
 10
1203646.018281041
 20
612462.5531468613
 10
1203670.681914432
 20
612460.6756698461
 10
1203704.190077236
 20
612458.8579714247
 10
1203748.923902669
 20
612457.9391014151
 10
1203789.616924704
 20
612456.0637937989
 10
1203835.117932708
 20
612454.5398775901
 10
1203879.316292346
 20
612452.8979222592
 10
1203938.623503084
 20
612451.4531456351
 10
1203980.595575818
 20
612451.1853109761
 10
1204038.363174373
 20
612450.6246674454
 10
1204083.146311627
 20
612449.499137463
 10
1204129.256893224
 20
612448.3223091895
 10
1204175.145389504
 20
612446.8333477522
 10
1204220.143202585
 20
612444.6069275441
 10
1204321.681281949
 20
612441.6488389687
  0
LWPOLYLINE
  5
19E
330
19
100
AcDbEntity
  8
S-ROADS-GRAVEL
100
AcDbPolyline
 90
        8
 70
     0
 43
0.0
 10
1203401.67745253
 20
612259.018592723
 10
1203409.847
 20
612266.554
 10
1203434.973
 20
612273.242
 10
1203467.209
 20
612271.316
 10
1203507.155
 20
612266.511
 10
1203542.335
 20
612264.18
 10
1203569.478
 20
612264.024
 10
1203584.920571377
 20
612258.8341250002
  0
LWPOLYLINE
  5
19F
330
19
100
AcDbEntity
  8
S-ROADS-GRAVEL
100
AcDbPolyline
 90
        7
 70
     0
 43
0.0
 10
1203365.885
 20
612267.722
 10
1203387.243
 20
612268.948
 10
1203405.725
 20
612274.644
 10
1203434.443
 20
612281.4589999999
 10
1203468.196
 20
612278.4909999999
 10
1203507.111
 20
612274.728
 10
1203544.932
 20
612271.3909999998
  0
LWPOLYLINE
  5
1A0
330
19
100
AcDbEntity
  8
S-ROADS-RW
100
AcDbPolyline
 90
        8
 70
     0
 43
0.0
 38
1059.007
 10
1203282.645124916
 20
612350.0967029206
 10
1203461.602530326
 20
612228.8469989636
 10
1203627.872878203
 20
612116.1932062315
 10
1203768.951176086
 20
612020.6078806969
 10
1203966.011945958
 20
611887.0884570722
 10
1204009.525366229
 20
611857.7540614838
 10
1204092.541125622
 20
611801.8460886542
 10
1204210.373697889
 20
611723.2461873699
  0
ENDSEC
  0
SECTION
  2
OBJECTS
  0
DICTIONARY
  5
5
330
0
100
AcDbDictionary
281
     1
  3
ACAD_COLOR
350
2B
  3
ACAD_DETAILVIEWSTYLE
350
1A5
  3
ACAD_GROUP
350
29
  3
ACAD_LAYOUT
350
21
  3
ACAD_MATERIAL
350
7
  3
ACAD_MLEADERSTYLE
350
1A4
  3
ACAD_MLINESTYLE
350
17
  3
ACAD_PLOTSETTINGS
350
2A
  3
ACAD_PLOTSTYLENAME
350
4
  3
ACAD_SCALELIST
350
30
  3
ACAD_SECTIONVIEWSTYLE
350
1A6
  3
ACAD_TABLESTYLE
350
1A3
  3
ACAD_VISUALSTYLE
350
2C
  3
AcDbVariableDictionary
350
1A1
  0
SUN
  5
2E
330
2D
100
AcDbSun
 90
        1
290
     0
 63
     7
421
 16777215
 40
1.0
291
     1
 91
  2455826
 92
 54000000
292
     0
 70
     2
 71
   256
280
     1
  0
DICTIONARY
  5
92
330
91
100
AcDbDictionary
280
     1
281
     1
  3
ADSK_XREC_LAYER_RECONCILED
360
93
  0
DICTIONARY
  5
97
330
96
100
AcDbDictionary
280
     1
281
     1
  3
ADSK_XREC_LAYER_RECONCILED
360
98
  0
DICTIONARY
  5
9B
330
9A
100
AcDbDictionary
280
     1
281
     1
  3
ADSK_XREC_LAYER_RECONCILED
360
9C
  0
DICTIONARY
  5
1A
330
19
100
AcDbDictionary
280
     1
281
     1
  3
ACAD_SORTENTS
360
1B
  0
DICTIONARY
  5
2B
102
{ACAD_REACTORS
330
5
102
}
330
5
100
AcDbDictionary
281
     1
  0
DICTIONARY
  5
1A5
102
{ACAD_REACTORS
330
5
102
}
330
5
100
AcDbDictionary
281
     1
  0
DICTIONARY
  5
29
102
{ACAD_REACTORS
330
5
102
}
330
5
100
AcDbDictionary
281
     1
  0
DICTIONARY
  5
21
102
{ACAD_REACTORS
330
5
102
}
330
5
100
AcDbDictionary
281
     1
  3
Layout1
350
25
  3
Model
350
20
  0
DICTIONARY
  5
7
102
{ACAD_REACTORS
330
5
102
}
330
5
100
AcDbDictionary
281
     1
  3
ByBlock
350
53
  3
ByLayer
350
11
  3
Global
350
6
  0
DICTIONARY
  5
1A4
102
{ACAD_REACTORS
330
5
102
}
330
5
100
AcDbDictionary
281
     1
  0
DICTIONARY
  5
17
102
{ACAD_REACTORS
330
5
102
}
330
5
100
AcDbDictionary
281
     1
  3
Standard
350
16
  0
DICTIONARY
  5
2A
102
{ACAD_REACTORS
330
5
102
}
330
5
100
AcDbDictionary
281
     1
  0
ACDBDICTIONARYWDFLT
  5
4
102
{ACAD_REACTORS
330
5
102
}
330
5
100
AcDbDictionary
281
     1
  3
Normal
350
3
100
AcDbDictionaryWithDefault
340
3
  0
DICTIONARY
  5
30
102
{ACAD_REACTORS
330
5
102
}
330
5
100
AcDbDictionary
281
     1
  3
*A2
350
52
  0
DICTIONARY
  5
1A6
102
{ACAD_REACTORS
330
5
102
}
330
5
100
AcDbDictionary
281
     1
  0
DICTIONARY
  5
1A3
102
{ACAD_REACTORS
330
5
102
}
330
5
100
AcDbDictionary
281
     1
  0
DICTIONARY
  5
2C
102
{ACAD_REACTORS
330
5
102
}
330
5
100
AcDbDictionary
281
     1
  0
DICTIONARY
  5
1A1
102
{ACAD_REACTORS
330
5
102
}
330
5
100
AcDbDictionary
281
     1
  3
CANNOSCALE
350
1A2
  0
XRECORD
  5
93
102
{ACAD_REACTORS
330
92
102
}
330
92
100
AcDbXrecord
280
     1
290
     1
  0
XRECORD
  5
98
102
{ACAD_REACTORS
330
97
102
}
330
97
100
AcDbXrecord
280
     1
290
     1
  0
XRECORD
  5
9C
102
{ACAD_REACTORS
330
9B
102
}
330
9B
100
AcDbXrecord
280
     1
290
     1
  0
SORTENTSTABLE
  5
1B
102
{ACAD_REACTORS
330
1A
102
}
330
1A
100
AcDbSortentsTable
330
19
331
5F
  5
186
331
62
  5
181
331
65
  5
180
331
66
  5
17F
331
69
  5
17D
331
6A
  5
14A
331
6C
  5
134
331
6E
  5
133
331
6F
  5
132
331
70
  5
12D
331
71
  5
128
331
72
  5
11D
331
73
  5
118
331
76
  5
10E
331
7B
  5
109
331
7C
  5
104
331
7D
  5
F9
331
83
  5
F3
331
84
  5
F2
331
85
  5
F1
331
8A
  5
E4
331
8B
  5
E3
331
8C
  5
E2
331
8D
  5
E1
331
A2
  5
E0
331
A3
  5
DF
331
A4
  5
DE
331
A5
  5
DD
331
A6
  5
DA
331
A7
  5
CC
331
A8
  5
CB
331
A9
  5
CA
331
AA
  5
C8
331
AB
  5
BB
331
AC
  5
BA
331
AD
  5
B9
331
AE
  5
B8
331
AF
  5
B7
331
B0
  5
B6
331
B1
  5
B5
331
B2
  5
B4
331
B3
  5
B1
331
B4
  5
B0
331
B5
  5
AF
331
B6
  5
AE
331
B7
  5
AD
331
B8
  5
AC
331
B9
  5
AB
331
BA
  5
AA
331
BB
  5
A9
331
C8
  5
8A
331
C9
  5
85
331
CA
  5
84
331
CB
  5
83
331
CC
  5
71
331
CD
  5
70
331
CF
  5
6F
331
D0
  5
6E
331
D1
  5
6C
331
D2
  5
6A
331
D8
  5
1A0
331
D9
  5
19F
331
DA
  5
19E
331
DB
  5
19D
331
DC
  5
19C
331
DD
  5
19B
331
DE
  5
19A
331
DF
  5
191
331
E0
  5
190
331
E1
  5
18B
331
E2
  5
17E
331
E3
  5
15F
331
E4
  5
15A
331
E5
  5
150
331
E6
  5
14B
331
EC
  5
149
331
ED
  5
143
331
EE
  5
142
331
EF
  5
141
331
F0
  5
13C
331
F1
  5
13B
331
F2
  5
13A
331
F3
  5
113
331
F9
  5
F0
331
104
  5
EF
331
109
  5
EE
331
10E
  5
ED
331
113
  5
EC
331
118
  5
E6
331
11D
  5
E5
331
128
  5
DC
331
12D
  5
DB
331
132
  5
D9
331
133
  5
D8
331
134
  5
D2
331
13A
  5
D1
331
13B
  5
D0
331
13C
  5
CF
331
141
  5
CD
331
142
  5
C9
331
143
  5
B3
331
149
  5
B2
331
14A
  5
A8
331
14B
  5
A7
331
150
  5
A6
331
155
  5
A5
331
15A
  5
A4
331
15F
  5
A3
331
164
  5
A2
331
169
  5
8D
331
16E
  5
8C
331
173
  5
8B
331
178
  5
7D
331
17D
  5
7C
331
17E
  5
7B
331
17F
  5
76
331
180
  5
69
331
181
  5
66
331
186
  5
65
331
18B
  5
62
331
190
  5
5F
331
191
  5
196
331
192
  5
195
331
195
  5
192
331
196
  5
199
331
197
  5
198
331
198
  5
197
331
199
  5
173
331
19A
  5
16E
331
19B
  5
169
331
19C
  5
164
331
19D
  5
155
331
19E
  5
73
331
19F
  5
72
331
1A0
  5
178
  0
LAYOUT
  5
25
102
{ACAD_REACTORS
330
21
330
21
102
}
330
21
100
AcDbPlotSettings
  1

  2
Canon MG3500 series
  4
USER1
  6

 40
6.392333333333332
 41
5.037666666666643
 42
6.307666666666684
 43
3.175
 44
215.9
 45
279.4
 46
0.0
 47
0.0
 48
0.0
 49
0.0
140
0.0
141
0.0
142
1.0
143
1.0
 70
   688
 72
     0
 73
     1
 74
     5
  7

 75
    16
 76
     0
 77
     2
 78
   300
147
1.0
148
0.0
149
0.0
100
AcDbLayout
  1
Layout1
 70
     1
 71
     1
 10
0.0
 20
0.0
 11
12.0
 21
9.0
 12
0.0
 22
0.0
 32
0.0
 14
1.000000000000000E+20
 24
1.000000000000000E+20
 34
1.000000000000000E+20
 15
-1.000000000000000E+20
 25
-1.000000000000000E+20
 35
-1.000000000000000E+20
146
0.0
 13
0.0
 23
0.0
 33
0.0
 16
1.0
 26
0.0
 36
0.0
 17
0.0
 27
1.0
 37
0.0
 76
     0
330
22
  0
LAYOUT
  5
20
102
{ACAD_REACTORS
330
21
330
21
102
}
330
21
100
AcDbPlotSettings
  1

  2
Canon MG3500 series
  4
USER1
  6

 40
6.392333333333332
 41
5.037666666666643
 42
6.307666666666684
 43
3.175
 44
215.9
 45
279.4
 46
0.0
 47
3.747970286873169
 48
1215096.293246091
 49
637113.3089660457
140
1215510.122572543
141
636576.2851891917
142
1.0
143
51.72866580644041
 70
  1716
 72
     0
 73
     0
 74
     4
  7

 75
     0
 76
     0
 77
     2
 78
   300
147
0.0193316410622656
148
-61735661.97197121
149
-32337924.49321689
100
AcDbLayout
  1
Model
 70
     1
 71
     0
 10
0.0
 20
0.0
 11
12.0
 21
9.0
 12
0.0
 22
0.0
 32
0.0
 14
1.000000000000000E+20
 24
1.000000000000000E+20
 34
1.000000000000000E+20
 15
-1.000000000000000E+20
 25
-1.000000000000000E+20
 35
-1.000000000000000E+20
146
0.0
 13
0.0
 23
0.0
 33
0.0
 16
1.0
 26
0.0
 36
0.0
 17
0.0
 27
1.0
 37
0.0
 76
     0
330
19
331
2D
  0
MATERIAL
  5
53
102
{ACAD_REACTORS
330
7
102
}
330
7
100
AcDbMaterial
  1
ByBlock
 72
     1
 94
      127
  0
MATERIAL
  5
11
102
{ACAD_REACTORS
330
7
102
}
330
7
100
AcDbMaterial
  1
ByLayer
 72
     1
 94
      127
  0
MATERIAL
  5
6
102
{ACAD_REACTORS
330
7
102
}
330
7
100
AcDbMaterial
  1
Global
 72
     1
 94
      127
  0
MLINESTYLE
  5
16
102
{ACAD_REACTORS
330
17
102
}
330
17
100
AcDbMlineStyle
  2
Standard
 70
     0
  3

 62
   256
 51
90.0
 52
90.0
 71
     2
 49
0.5
 62
   256
  6
BYLAYER
 49
-0.5
 62
   256
  6
BYLAYER
  0
ACDBPLACEHOLDER
  5
3
102
{ACAD_REACTORS
330
4
102
}
330
4
  0
SCALE
  5
52
102
{ACAD_REACTORS
330
30
102
}
330
30
100
AcDbScale
 70
     0
300
1:1
140
1.0
141
1.0
290
     1
  0
DICTIONARYVAR
  5
1A2
102
{ACAD_REACTORS
330
1A1
102
}
330
1A1
100
DictionaryVariables
280
     0
  1
1:1
  0
ENDSEC
  0
EOF
